<?xml version="1.0" encoding="utf-8"?>
<!-- Generator: Adobe Illustrator 19.0.0, SVG Export Plug-In . SVG Version: 6.00 Build 0)  -->
<svg version="1.1" id="Шар_1" xmlns="http://www.w3.org/2000/svg" xmlns:xlink="http://www.w3.org/1999/xlink" x="0px" y="0px"
	 viewBox="-365 242.3 129 129" style="enable-background:new -365 242.3 129 129;" xml:space="preserve">
<style type="text/css">
	.st0{fill:#CAD401;}
	.st1{fill:#E2E2E2;}
</style>
<g>
	<g>
		<path class="st0" d="M-300.7,313.9c18,0,32.6-14.6,32.6-32.6s-14.6-32.5-32.6-32.5s-32.6,14.6-32.6,32.5S-318.7,313.9-300.7,313.9
			z M-300.7,257.3c13.2,0,24,10.8,24,24s-10.8,24-24,24s-24-10.8-24-24S-313.9,257.3-300.7,257.3z"/>
		<path class="st1" d="M-357.1,364.8h113.2c2.4,0,4.3-1.9,4.3-4.3c0-22.5-18.3-40.9-40.9-40.9h-40c-22.5,0-40.9,18.3-40.9,40.9
			C-361.4,362.9-359.5,364.8-357.1,364.8z M-320.5,328.2h40c16.4,0,29.9,12.2,32,28h-104C-350.4,340.5-336.9,328.2-320.5,328.2z"/>
	</g>
</g>
</svg>
