<?xml version="1.0" encoding="utf-8"?>
<!-- Generator: Adobe Illustrator 19.0.0, SVG Export Plug-In . SVG Version: 6.00 Build 0)  -->
<svg version="1.1" id="Шар_1" xmlns="http://www.w3.org/2000/svg" xmlns:xlink="http://www.w3.org/1999/xlink" x="0px" y="0px"
	 viewBox="-365 242.3 129 129" style="enable-background:new -365 242.3 129 129;" xml:space="preserve">
<style type="text/css">
	.st0{fill:#E2E2E2;}
	.st1{fill:#CAD401;}
</style>
<g>
	<g>
		<path class="st0" d="M-354.4,360.4h107.9c2.3,0,4.1-1.8,4.1-4.1v-91.5c0-2.3-1.8-4.1-4.1-4.1h-20.3v-3.5c0-2.3-1.8-4.1-4.1-4.1
			s-4.1,1.8-4.1,4.1v3.5h-50.2v-3.5c0-2.3-1.8-4.1-4.1-4.1c-2.3,0-4.1,1.8-4.1,4.1v3.5h-21c-2.3,0-4.1,1.8-4.1,4.1v91.6
			C-358.5,358.6-356.6,360.4-354.4,360.4z M-350.3,268.9h16.9v2.2c0,2.3,1.8,4.1,4.1,4.1c2.3,0,4.1-1.8,4.1-4.1v-2.2h50.2v2.2
			c0,2.3,1.8,4.1,4.1,4.1s4.1-1.8,4.1-4.1v-2.2h16.3v10.6h-99.8C-350.3,279.5-350.3,268.9-350.3,268.9z M-350.3,287.7h99.7v64.6
			h-99.7C-350.3,352.3-350.3,287.7-350.3,287.7z"/>
		<path class="st1" d="M-270.9,306.5h-59c-2.3,0-4.1,1.8-4.1,4.1c0,2.3,1.8,4.1,4.1,4.1h59c2.3,0,4.1-1.8,4.1-4.1
			S-268.6,306.5-270.9,306.5z"/>
		<path class="st1" d="M-300.4,326.3h-29.5c-2.3,0-4.1,1.8-4.1,4.1s1.8,4.1,4.1,4.1h29.5c2.3,0,4.1-1.8,4.1-4.1
			C-296.3,328.1-298.1,326.3-300.4,326.3z"/>
	</g>
</g>
</svg>
