<?xml version="1.0" encoding="utf-8"?>
<!-- Generator: Adobe Illustrator 19.0.0, SVG Export Plug-In . SVG Version: 6.00 Build 0)  -->
<svg version="1.1" id="Layer_1" xmlns="http://www.w3.org/2000/svg" xmlns:xlink="http://www.w3.org/1999/xlink" x="0px" y="0px"
	 viewBox="-284 161.7 290.6 290.6" style="enable-background:new -284 161.7 290.6 290.6;" xml:space="preserve">
<style type="text/css">
	.st0{fill:#CAD401;}
	.st1{fill:#FFFFFF;}
	.st2{fill:#E2E2E2;}
</style>
<g>
	<g>
		<path class="st0" d="M-7.4,255.4h-46.9v-27c-8.9-7.1-14.1-17.9-14.1-29.2c0-20.7,16.8-37.5,37.5-37.5s37.5,16.8,37.5,37.5
			c0,11.4-5.2,22.1-14.1,29.2L-7.4,255.4L-7.4,255.4z"/>
		<path class="st0" d="M-246.5,236.7c-20.7,0-37.5-16.8-37.5-37.5s16.8-37.5,37.5-37.5s37.5,16.8,37.5,37.5
			S-225.8,236.7-246.5,236.7z"/>
		<path class="st1" d="M-26.2,232v-19.6c5.4-1.9,9.4-7.1,9.4-13.2c0-7.8-6.3-14.1-14.1-14.1S-45,191.4-45,199.2
			c0,6.1,3.9,11.3,9.4,13.2V232H-59v9.4h56.2V232H-26.2z M-30.9,194.5c2.6,0,4.7,2.1,4.7,4.7c0,2.6-2.1,4.7-4.7,4.7
			s-4.7-2.1-4.7-4.7C-35.6,196.6-33.5,194.5-30.9,194.5z"/>
		<path class="st2" d="M-58.8,367.7l-26.4-4.6l-20.4-15.3c10.9-8,19.1-18.9,23.7-31.4c11.4-0.3,20.6-10.6,20.6-23.4
			c0-6.9-2.7-13-7-17.3v-6.1c0-38.8-31.5-70.3-70.3-70.3s-70.3,31.5-70.3,70.3v8.9c-2.9,4-4.7,9-4.7,14.5c0,11.8,7.9,21.5,18.2,23.1
			c4.5,12.5,12.6,23.4,23.3,31.4l-20,15.7l-26.3,4.6C-237.6,371-253,386-256.8,405l-9.5,47.3h100.9h22.6h8.1h22.6h100.9l-9.5-47.3
			C-24.4,386-39.7,371-58.8,367.7z M-138.3,442.9h-0.8l-22.2-88.9c1.2,0.6,2.4,1.2,3.6,1.7c6,2.5,12.5,3.8,19,3.8s13-1.3,19-3.8
			c1.2-0.5,2.4-1.1,3.6-1.7L-138.3,442.9z M-79.1,306.3c0.9-4.4,1.4-8.9,1.4-13.5V280c4.1,2.2,7,7.1,7,12.9
			C-70.7,299.3-74.3,304.6-79.1,306.3z M-138.7,208.5c33.6,0,60.9,27.3,60.9,60.9h-4.7c-18.9,0-28.7-11.8-29.1-12.3l-2.2-2.8
			l-3.3,1.3c-0.3,0.1-33.9,13.7-77.9,13.7h-4.7C-199.6,235.9-172.3,208.5-138.7,208.5z M-204.3,292.9c0-4.6,1.9-8.6,4.7-11.2v11.1
			c0,4.2,0.4,8.2,1.1,12.2C-202,302.5-204.3,298.1-204.3,292.9z M-190.2,292.8v-14c36.5-0.7,64.7-9.9,73.7-13.2
			c4.3,4.1,14.1,11.7,29.4,13.1v14.1c0,23.8-14.2,45.1-36.2,54.3c-9.8,4.1-21,4.1-30.8,0C-176.1,337.9-190.2,316.6-190.2,292.8z
			 M-254.8,442.9l7.2-36.1c3-15.2,15.4-27.3,30.7-29.9l20.2-3.5l-4.5,16.4l11.7,3.7L-201,405l28.7,37.9H-254.8z M-188.7,405.8
			l16.6-16.6l-17.7-5.7l3.7-13.3l16.1-12.6l21.3,85.3h-12L-188.7,405.8z M-128.6,442.9l21.2-84.8l16.2,12.2l3.7,13.3l-17.7,5.7
			l16.6,16.6l-28,37.1h-12V442.9z M-104.9,442.9l28.7-37.9l-11.5-11.5l11.7-3.7l-4.5-16.4l20.2,3.5c15.3,2.7,27.7,14.7,30.7,29.9
			l7.2,36.1H-104.9z"/>
		<rect x="-35.6" y="264.8" class="st2" width="9.4" height="84.4"/>
		<rect x="-35.6" y="358.5" class="st2" width="9.4" height="9.4"/>
		<rect x="-16.8" y="264.8" class="st2" width="9.4" height="60.9"/>
		<rect x="-16.8" y="335.1" class="st2" width="9.4" height="18.8"/>
		<rect x="-54.3" y="264.8" class="st2" width="9.4" height="46.9"/>
		<rect x="-54.3" y="321" class="st2" width="9.4" height="14.1"/>
		<path class="st1" d="M-241.8,213.2h-9.4c-2.6,0-4.7-2.1-4.7-4.7h-9.4c0,7.8,6.3,14.1,14.1,14.1v9.4h9.4v-9.4
			c7.8,0,14.1-6.3,14.1-14.1s-6.3-14.1-14.1-14.1h-9.4c-2.6,0-4.7-2.1-4.7-4.7c0-2.6,2.1-4.7,4.7-4.7h9.4c2.6,0,4.7,2.1,4.7,4.7h9.4
			c0-7.8-6.3-14.1-14.1-14.1v-9.4h-9.4v9.4c-7.8,0-14.1,6.3-14.1,14.1s6.3,14.1,14.1,14.1h9.4c2.6,0,4.7,2.1,4.7,4.7
			C-237.1,211.1-239.2,213.2-241.8,213.2z"/>
		<rect x="-251.2" y="246" class="st2" width="9.4" height="84.4"/>
		<rect x="-251.2" y="339.8" class="st2" width="9.4" height="9.4"/>
		<rect x="-232.4" y="241.3" class="st2" width="9.4" height="46.9"/>
		<rect x="-232.4" y="297.6" class="st2" width="9.4" height="18.8"/>
		<rect x="-269.9" y="241.3" class="st2" width="9.4" height="56.2"/>
		<rect x="-269.9" y="307" class="st2" width="9.4" height="14.1"/>
	</g>
</g>
</svg>
