<?xml version="1.0" encoding="utf-8"?>
<!-- Generator: Adobe Illustrator 19.0.0, SVG Export Plug-In . SVG Version: 6.00 Build 0)  -->
<svg version="1.1" id="Layer_1" xmlns="http://www.w3.org/2000/svg" xmlns:xlink="http://www.w3.org/1999/xlink" x="0px" y="0px"
	 viewBox="-284 161.7 290.6 290.6" style="enable-background:new -284 161.7 290.6 290.6;" xml:space="preserve">
<style type="text/css">
	.st0{fill:#CAD401;}
	.st1{fill:#E2E2E2;}
</style>
<g>
	<g>
		<path class="st0" d="M-252.5,217.9c-15.5,0-28.1-12.6-28.1-28.1s12.6-28.1,28.1-28.1s28.1,12.6,28.1,28.1S-237,217.9-252.5,217.9z
			"/>
		<path class="st1" d="M-0.1,330c-3.4-3.1-8-4.6-12.7-4.2c-2.2,0.2-4.3,1-6.2,2c-2.1-6.6-8.2-11.5-15.6-11.5c-4.6,0-8.7,1.9-11.7,5
			c-3-3.1-7.1-5-11.7-5c-2.5,0-4.9,0.6-7,1.6v-36.1c0-8.7-6.5-16.2-14.7-17c-4.7-0.5-9.3,1.1-12.7,4.2c-3.4,3.1-5.4,7.5-5.4,12.2
			v88.3l-17.9-17.9c-7.4-7.4-18.9-7.9-26.3-1.3c-3.9,3.5-6.1,8.3-6.2,13.5c-0.1,5.1,2.9,10.1,6.6,13.7L-93,425v27.2h9.4v-31.1
			L-135,371c-1.8-1.8-3.3-4.3-3.3-6.9c0.1-2.6,0.9-5,2.8-6.7c3.6-3.3,9.5-2.9,13.3,0.9l33.7,33.9v-111c0-2,0.8-3.9,2.3-5.2
			c1.5-1.4,3.5-2,5.5-1.8c3.5,0.4,6.3,3.7,6.3,7.7v50.9v21.1h9.4v-21.1c0-3.9,3.2-7,7-7c3.9,0,7,3.2,7,7v21.1h9.4v-21.1
			c0-3.9,3.2-7,7-7s7,3.2,7,7v10v15.7h9.4v-15.7c0-3.9,2.8-7.3,6.3-7.7c2-0.2,4,0.4,5.5,1.8s2.3,3.2,2.3,5.2v86.7
			c0,2.6-2.1,4.7-4.7,4.7h-4.7v18.8H-4v-10.2c5.5-1.9,9.4-7.1,9.4-13.3v-86.7C5.3,337.5,3.4,333.1-0.1,330z"/>
		<path class="st1" d="M-88.4,208.5v46.9h9.4v-46.9c0-25.8-21-46.9-46.9-46.9s-46.9,21-46.9,46.9v28.1h9.4v-28.1
			c0-20.7,16.8-37.5,37.5-37.5S-88.4,187.9-88.4,208.5z"/>
		<rect x="-172.8" y="302.3" class="st1" width="9.4" height="18.8"/>
		<rect x="-172.8" y="330.4" class="st1" width="9.4" height="18.8"/>
		<path class="st1" d="M-172.8,377.3v28.1c0,20.7-16.8,37.5-37.5,37.5s-37.5-16.8-37.5-37.5V239.6l21.3,10.7l4.2-8.4l-30.2-15.1
			l-30.2,15.1l4.2,8.4l21.3-10.7v165.9c0,25.8,21,46.9,46.9,46.9s46.9-21,46.9-46.9v-28.1v-18.8h-9.4L-172.8,377.3L-172.8,377.3z"/>
		<rect x="-172.8" y="246" class="st1" width="9.4" height="18.8"/>
		<rect x="-172.8" y="274.2" class="st1" width="9.4" height="18.8"/>
	</g>
</g>
</svg>
