<?xml version="1.0" encoding="utf-8"?>
<!-- Generator: Adobe Illustrator 19.0.0, SVG Export Plug-In . SVG Version: 6.00 Build 0)  -->
<svg version="1.1" id="Layer_1" xmlns="http://www.w3.org/2000/svg" xmlns:xlink="http://www.w3.org/1999/xlink" x="0px" y="0px"
	 viewBox="-284 161.7 290.6 290.6" style="enable-background:new -284 161.7 290.6 290.6;" xml:space="preserve">
<style type="text/css">
	.st0{fill:#E2E2E2;}
	.st1{fill:#CAD401;}
	.st2{fill:#FFFFFF;}
</style>
<g>
	<g>
		<path class="st0" d="M-124.6,196.5c5.5-3.3,9.3-9.2,9.3-16.1c0-10.3-8.4-18.8-18.8-18.8s-18.8,8.4-18.8,18.8
			c0,6.9,3.8,12.8,9.3,16.1c-8.2,3.6-14,11.9-14,21.4v4.7c0,2.6,2.1,4.7,4.7,4.7h14.1v32.8h9.4v-32.8h14.1c2.6,0,4.7-2.1,4.7-4.7
			v-4.7C-110.7,208.4-116.4,200.1-124.6,196.5z M-134.1,171c5.2,0,9.4,4.2,9.4,9.4s-4.2,9.4-9.4,9.4s-9.4-4.2-9.4-9.4
			S-139.3,171-134.1,171z M-148.2,217.9c0-7.8,6.3-14.1,14.1-14.1s14.1,6.3,14.1,14.1H-148.2z"/>
		<path class="st0" d="M-270,260.1h37.5c2.6,0,4.7-2.1,4.7-4.7v-0.6l49,32.6l5.2-7.8l-55.7-37.2c-2.2-5.9-6.7-10.6-12.4-13.2
			c5.5-3.3,9.3-9.2,9.3-16.1c0-10.3-8.4-18.8-18.8-18.8s-18.8,8.4-18.8,18.8c0,6.9,3.8,12.8,9.3,16.1c-8.2,3.6-14,11.8-14,21.4v4.7
			C-274.7,258-272.6,260.1-270,260.1z M-251.3,203.8c5.2,0,9.4,4.2,9.4,9.4s-4.2,9.4-9.4,9.4c-5.2,0-9.4-4.2-9.4-9.4
			S-256.4,203.8-251.3,203.8z M-251.3,236.7c7.8,0,14.1,6.3,14.1,14.1h-28.1C-265.3,243-259,236.7-251.3,236.7z"/>
		<path class="st0" d="M-7.4,229.3c5.5-3.3,9.3-9.2,9.3-16.1c0-10.3-8.4-18.8-18.8-18.8s-18.8,8.4-18.8,18.8
			c0,6.9,3.8,12.8,9.3,16.1c-5.7,2.5-10.2,7.3-12.4,13.2l-55.7,37.2l5.2,7.8l49-32.6v0.6c0,2.6,2.1,4.7,4.7,4.7H1.9
			c2.6,0,4.7-2.1,4.7-4.7v-4.7C6.5,241.2,0.8,233-7.4,229.3z M-16.9,203.8c5.2,0,9.4,4.2,9.4,9.4s-4.2,9.4-9.4,9.4s-9.4-4.2-9.4-9.4
			S-22.1,203.8-16.9,203.8z M-31,250.7c0-7.8,6.3-14.1,14.1-14.1s14.1,6.3,14.1,14.1H-31z"/>
		<path class="st0" d="M-7.4,360.6c5.5-3.3,9.3-9.2,9.3-16.1c0-10.3-8.4-18.8-18.8-18.8s-18.8,8.4-18.8,18.8
			c0,6.9,3.8,12.8,9.3,16.1c-2.6,1.2-4.9,2.7-6.9,4.7l-55.9-38.7l-5.3,7.7l56,38.8c-1.1,2.8-1.8,5.8-1.8,8.9v4.7
			c0,2.6,2.1,4.7,4.7,4.7H1.9c2.6,0,4.7-2.1,4.7-4.7V382C6.5,372.4,0.8,364.2-7.4,360.6z M-16.9,335.1c5.2,0,9.4,4.2,9.4,9.4
			c0,5.2-4.2,9.4-9.4,9.4s-9.4-4.2-9.4-9.4C-26.3,339.3-22.1,335.1-16.9,335.1z M-31,382c0-7.8,6.3-14.1,14.1-14.1
			s14.1,6.3,14.1,14.1H-31z"/>
		<path class="st0" d="M-124.6,421.5c5.5-3.3,9.3-9.2,9.3-16.1c0-8.7-6-16-14.1-18.1v-33.5h-9.4v33.5c-8.1,2.1-14.1,9.4-14.1,18.1
			c0,6.9,3.8,12.8,9.3,16.1c-8.2,3.6-14,11.9-14,21.4v4.7c0,2.6,2.1,4.7,4.7,4.7h37.5c2.6,0,4.7-2.1,4.7-4.7v-4.7
			C-110.7,433.4-116.4,425.1-124.6,421.5z M-134.1,396c5.2,0,9.4,4.2,9.4,9.4c0,5.2-4.2,9.4-9.4,9.4s-9.4-4.2-9.4-9.4
			C-143.5,400.2-139.3,396-134.1,396z M-148.2,442.9c0-7.8,6.3-14.1,14.1-14.1s14.1,6.3,14.1,14.1H-148.2z"/>
		<path class="st0" d="M-178.9,326.6l-55.9,38.7c-2-2-4.4-3.6-6.9-4.7c5.5-3.3,9.3-9.2,9.3-16.1c0-10.3-8.4-18.8-18.8-18.8
			c-10.4,0-18.8,8.4-18.8,18.8c0,6.9,3.8,12.8,9.3,16.1c-8.2,3.6-14,11.9-14,21.4v4.7c0,2.6,2.1,4.7,4.7,4.7h37.5
			c2.6,0,4.7-2.1,4.7-4.7V382c0-3.2-0.6-6.2-1.8-8.9l56-38.8L-178.9,326.6z M-251.3,335.1c5.2,0,9.4,4.2,9.4,9.4
			c0,5.2-4.2,9.4-9.4,9.4c-5.2,0-9.4-4.2-9.4-9.4C-260.7,339.3-256.4,335.1-251.3,335.1z M-265.3,382c0-7.8,6.3-14.1,14.1-14.1
			c7.8,0,14.1,6.3,14.1,14.1H-265.3z"/>
		<path class="st1" d="M-134.1,358.5c-28.4,0-51.6-23.1-51.6-51.6c0-28.4,23.1-51.6,51.6-51.6s51.6,23.1,51.6,51.6
			C-82.5,335.4-105.7,358.5-134.1,358.5z"/>
		<path class="st2" d="M-124.6,304.3c5.5-3.3,9.3-9.2,9.3-16.1c0-10.3-8.4-18.8-18.8-18.8s-18.8,8.4-18.8,18.8
			c0,6.9,3.8,12.8,9.3,16.1c-8.2,3.6-14,11.9-14,21.4v4.7c0,2.6,2.1,4.7,4.7,4.7h37.5c2.6,0,4.7-2.1,4.7-4.7v-4.7
			C-110.7,316.2-116.4,308-124.6,304.3z M-134.1,278.8c5.2,0,9.4,4.2,9.4,9.4c0,5.2-4.2,9.4-9.4,9.4s-9.4-4.2-9.4-9.4
			C-143.5,283-139.3,278.8-134.1,278.8z M-148.2,325.7c0-7.8,6.3-14.1,14.1-14.1s14.1,6.3,14.1,14.1H-148.2z"/>
	</g>
</g>
</svg>
