<?xml version="1.0" encoding="utf-8"?>
<!-- Generator: Adobe Illustrator 19.0.0, SVG Export Plug-In . SVG Version: 6.00 Build 0)  -->
<svg version="1.1" id="Layer_1" xmlns="http://www.w3.org/2000/svg" xmlns:xlink="http://www.w3.org/1999/xlink" x="0px" y="0px"
	 viewBox="-173 51.3 512 512" style="enable-background:new -173 51.3 512 512;" xml:space="preserve">
<style type="text/css">
	.st0{fill:#E2E2E2;}
	.st1{fill:#CAD401;}
</style>
<g>
	<g>
		<g>
			<path class="st0" d="M108.6,85.4H57.4c-23.5,0-42.7,19.1-42.7,42.7c0,4.7,3.8,8.5,8.5,8.5s8.5-3.8,8.5-8.5
				c0-14.1,11.5-25.6,25.6-25.6h51.2c14.1,0,25.6,11.5,25.6,25.6c0,4.7,3.8,8.5,8.5,8.5s8.5-3.8,8.5-8.5
				C151.3,104.6,132.1,85.4,108.6,85.4z"/>
			<path class="st1" d="M58.4,495h51.2c4.7,0,8.5-3.8,8.5-8.5v-42.7h42.7c4.7,0,8.5-3.8,8.5-8.5v-51.2c0-4.7-3.8-8.5-8.5-8.5h-42.7
				v-42.7c0-4.7-3.8-8.5-8.5-8.5H58.4c-4.7,0-8.5,3.8-8.5,8.5v42.7H7.2c-4.7,0-8.5,3.8-8.5,8.5v51.2c0,4.7,3.8,8.5,8.5,8.5h42.7
				v42.7C49.9,491.2,53.7,495,58.4,495z"/>
			<path class="st0" d="M296.3,153.7h-426.7c-23.5,0-42.7,19.1-42.7,42.7v51.2c0,11.6,6.9,20.9,17.1,24.3v248.8
				c0,23.5,19.1,42.7,42.7,42.7h392.5c23.5,0,42.7-19.1,42.7-42.7V298.7c0-4.7-3.8-8.5-8.5-8.5s-8.5,3.8-8.5,8.5v221.9
				c0,14.1-11.5,25.6-25.6,25.6h-392.5c-14.1,0-25.6-11.5-25.6-25.6v-256c0-4.7-3.8-8.5-8.5-8.5c-5.3,0-8.5-3.3-8.5-8.5v-51.2
				c0-14.1,11.5-25.6,25.6-25.6h426.7c14.1,0,25.6,11.5,25.6,25.6v51.2c0,5.2-3.4,8.5-8.5,8.5h-42.7v-34.1c0-9.4-7.7-17.1-17.1-17.1
				h-17.1c-9.4,0-17.1,7.7-17.1,17.1v34.1H-53.5v-34.1c0-9.4-7.7-17.1-17.1-17.1h-17.1c-9.4,0-17.1,7.7-17.1,17.1v34.1h-8.2
				c-4.7,0-8.5,3.8-8.5,8.5c0,4.7,3.8,8.5,8.5,8.5h16.7c4.7,0,8.5-3.8,8.5-8.5v-42.7h17.1v42.7c0,4.7,3.8,8.5,8.5,8.5h290.1
				c4.7,0,8.5-3.8,8.5-8.5v-42.7h17.1v42.7c0,4.7,3.8,8.5,8.5,8.5h51.2c14.6,0,25.6-11,25.6-25.6v-51.2
				C339,172.8,319.9,153.7,296.3,153.7z"/>
			<path class="st0" d="M-10.9,136.6c4.7,0,8.5-3.8,8.5-8.5c0-30.7,29-59.7,59.7-59.7h51.2c31.3,0,59.7,28.5,59.7,59.7
				c0,4.7,3.8,8.5,8.5,8.5s8.5-3.8,8.5-8.5c0-40.9-35.9-76.8-76.8-76.8H57.4c-40.2,0-76.8,36.6-76.8,76.8
				C-19.4,132.8-15.6,136.6-10.9,136.6z"/>
			<path class="st0" d="M57.4,495h51.2c4.7,0,8.5-3.8,8.5-8.5v-42.7h42.7c4.7,0,8.5-3.8,8.5-8.5v-51.2c0-4.7-3.8-8.5-8.5-8.5h-42.7
				v-42.7c0-4.7-3.8-8.5-8.5-8.5H57.4c-4.7,0-8.5,3.8-8.5,8.5v42.7H6.2c-4.7,0-8.5,3.8-8.5,8.5v51.2c0,4.7,3.8,8.5,8.5,8.5h42.7
				v42.7C48.9,491.2,52.7,495,57.4,495z M14.7,426.7v-34.1h42.7c4.7,0,8.5-3.8,8.5-8.5v-42.7h34.1v42.7c0,4.7,3.8,8.5,8.5,8.5h42.7
				v34.1h-42.7c-4.7,0-8.5,3.8-8.5,8.5v42.7H65.9v-42.7c0-4.7-3.8-8.5-8.5-8.5H14.7z"/>
			<path class="st0" d="M228.1,290.2c-4.7,0-8.5,3.8-8.5,8.5v8.5c0,9.4,7.7,17.1,17.1,17.1h17.1c9.4,0,17.1-7.7,17.1-17.1v-8.5
				c0-4.7-3.8-8.5-8.5-8.5s-8.5,3.8-8.5,8.5v8.5h-17.1v-8.5C236.6,294,232.8,290.2,228.1,290.2z"/>
			<path class="st0" d="M-96.2,290.2c-4.7,0-8.5,3.8-8.5,8.5v8.5c0,9.4,7.7,17.1,17.1,17.1h17.1c9.4,0,17.1-7.7,17.1-17.1v-8.5
				c0-4.7-3.8-8.5-8.5-8.5s-8.5,3.8-8.5,8.5v8.5h-17.1v-8.5C-87.7,294-91.5,290.2-96.2,290.2z"/>
		</g>
	</g>
</g>
</svg>
