<?xml version="1.0" encoding="utf-8"?>
<!-- Generator: Adobe Illustrator 19.0.0, SVG Export Plug-In . SVG Version: 6.00 Build 0)  -->
<svg version="1.1" id="Layer_1" xmlns="http://www.w3.org/2000/svg" xmlns:xlink="http://www.w3.org/1999/xlink" x="0px" y="0px"
	 viewBox="-173 51.3 512 512" style="enable-background:new -173 51.3 512 512;" xml:space="preserve">
<style type="text/css">
	.st0{fill:#FFFFFF;}
	.st1{fill:#CAD401;}
	.st2{fill:#E2E2E2;}
</style>
<path class="st0" d="M-21.3,306.6c-0.6,66.9,53.8,121.2,120.6,120.6c64.9-0.6,118-53.6,118.5-118.5c0.6-66.9-53.8-121.2-120.6-120.6
	C32.3,188.6-20.8,241.6-21.3,306.6z"/>
<g>
	<path class="st1" d="M179.5,132.6H18v-55c0-10.2,8.3-18.5,18.5-18.5H161c10.2,0,18.5,8.3,18.5,18.5V132.6L179.5,132.6z"/>
	<path class="st1" d="M18,480.7h161.5v55c0,10.2-8.3,18.5-18.5,18.5H36.5c-10.2,0-18.5-8.3-18.5-18.5V480.7L18,480.7z"/>
</g>
<path class="st2" d="M258.8,307c-0.1-39.5-14.4-76.8-40.5-106c0-0.1-0.1-0.3-0.1-0.4l-20.5-61.1c-2-5.9-6.1-10.6-11.3-13.3
	l-0.1-51.3c0-6.3-2.5-12.2-6.9-16.6c-4.5-4.4-10.3-6.9-16.6-6.9c0,0,0,0,0,0L34.5,51.5c-6.3,0-12.2,2.5-16.6,6.9
	C13.4,62.9,11,68.8,11,75.1l0.1,51.3c-5.2,2.8-9.3,7.5-11.3,13.4L-20.4,201c-0.1,0.2-0.1,0.4-0.2,0.6
	c-14.8,16.7-26.2,36.6-32.9,58.4l-15.7,0c-13,0-23.5,10.6-23.5,23.6l0.1,48.1c0,13,10.6,23.5,23.5,23.5c0,0,0,0,0,0l15.7,0
	c6.7,21.5,18,41.4,33.3,58.5c0,0.1,0.1,0.3,0.1,0.4l20.5,61.1c2,5.9,6.1,10.6,11.3,13.3l0.1,51.3c0,13,10.6,23.5,23.5,23.5
	c0,0,0,0,0,0l128.2-0.2c6.3,0,12.2-2.5,16.6-6.9c4.4-4.5,6.9-10.4,6.9-16.6l-0.1-51.3c5.2-2.8,9.3-7.5,11.3-13.4l20.3-61.2
	c0.1-0.2,0.1-0.4,0.2-0.6C243.7,384.7,258.9,347.6,258.8,307z M14.1,144.5c1.2-3.5,4.4-5.8,8.1-5.8l100.6-0.2c4.1,0,7.5-3.4,7.5-7.5
	c0-4.1-3.4-7.5-7.5-7.5c0,0,0,0,0,0l-96.6,0.2L26,75.1c0-2.3,0.9-4.4,2.5-6c1.6-1.6,3.7-2.5,6-2.5l128.2-0.2c0,0,0,0,0,0
	c2.2,0,4.4,0.9,6,2.5c1.6,1.6,2.5,3.7,2.5,6l0.1,48.6l-16.5,0c-4.1,0-7.5,3.4-7.5,7.5c0,4.1,3.4,7.5,7.5,7.5c0,0,0,0,0,0l20.5,0
	c0,0,0,0,0,0c3.7,0,6.9,2.3,8.1,5.8l11.9,35.6c-27.6-20.9-61.1-32.3-96.3-32.3h-0.3c-36.3,0.1-69.7,12.3-96.5,32.8L14.1,144.5z
	 M98.8,162.6h0.3c79.6,0,144.6,64.8,144.7,144.4c0.1,79.8-64.6,144.8-144.4,145H99c-79.6,0-144.6-64.8-144.7-144.4
	C-45.8,227.8,19,162.7,98.8,162.6z M-69.1,340.1c-2.2,0-4.4-0.9-6-2.5c-1.6-1.6-2.5-3.7-2.5-6l-0.1-48.1c0-4.7,3.8-8.5,8.5-8.5
	l11.9,0c-2.2,10.5-3.3,21.4-3.3,32.6c0,11.1,1.2,22,3.4,32.5L-69.1,340.1z M184,470c-1.2,3.5-4.4,5.8-8.1,5.8l-20.5,0
	c-4.1,0-7.5,3.4-7.5,7.5c0,4.1,3.4,7.5,7.5,7.5c0,0,0,0,0,0l16.5,0l0.1,48.6c0,2.3-0.9,4.4-2.5,6c-1.6,1.6-3.7,2.5-6,2.5l-128.2,0.2
	c0,0,0,0,0,0c-4.7,0-8.5-3.8-8.5-8.5l-0.1-48.6l96.6-0.2c4.1,0,7.5-3.4,7.5-7.5c0-4.1-3.4-7.5-7.5-7.5c0,0,0,0,0,0l-100.6,0.2
	c0,0,0,0,0,0c-3.7,0-6.9-2.3-8.1-5.8L2.7,434.8C30.3,455.7,63.8,467,99,467h0.3c36.3-0.1,69.7-12.3,96.5-32.8L184,470z"/>
<path class="st2" d="M99,435c0.1,0,0.2,0,0.2,0c0,0,0,0,0,0c70.4-0.1,127.6-57.5,127.4-127.9c-0.1-27.9-8.9-54.4-25.7-76.6
	c-2.5-3.3-7.2-4-10.5-1.5c-3.3,2.5-4,7.2-1.5,10.5c13.3,17.6,20.9,38.2,22.4,60.1l-8.2,0c-4.1,0-7.5,3.4-7.5,7.5
	c0,4.1,3.4,7.5,7.5,7.5c0,0,0,0,0,0l8.3,0c-3.6,56.2-48.6,101.3-104.7,105.1l0-8.3c0-4.1-3.4-7.5-7.5-7.5c0,0,0,0,0,0
	c-4.1,0-7.5,3.4-7.5,7.5l0,8.3C35.6,416.1-9.5,371.1-13.3,315l8.3,0c4.1,0,7.5-3.4,7.5-7.5c0-4.1-3.4-7.5-7.5-7.5c0,0,0,0,0,0
	l-8.3,0c1.7-27.3,13.1-52.7,32.6-72.2s44.8-31,72.1-32.9l0,8.3c0,4.1,3.4,7.5,7.5,7.5c0,0,0,0,0,0c4.1,0,7.5-3.4,7.5-7.5l0-8.2
	c21.8,1.4,42.5,9,60.1,22.1c3.3,2.5,8,1.8,10.5-1.5s1.8-8-1.5-10.5c-22.2-16.6-48.6-25.4-76.4-25.4c-0.1,0-0.2,0-0.2,0c0,0,0,0,0,0
	c-34.1,0.1-66.1,13.4-90.2,37.6s-37.3,56.3-37.2,90.4C-28.5,377.9,28.7,435,99,435z"/>
<path class="st2" d="M106.4,235.2c0-4.1-3.4-7.5-7.5-7.5c0,0,0,0,0,0c-4.1,0-7.5,3.4-7.5,7.5l0.1,72.1c0,0.1,0,0.1,0,0.2
	c0,0.1,0,0.3,0,0.4c0,0.1,0,0.2,0,0.3c0,0.1,0,0.3,0.1,0.4c0,0.1,0,0.2,0.1,0.3c0,0.1,0.1,0.2,0.1,0.4c0,0.1,0.1,0.2,0.1,0.4
	c0,0.1,0.1,0.2,0.1,0.3c0.1,0.1,0.1,0.3,0.2,0.4c0,0.1,0.1,0.2,0.1,0.3c0.1,0.1,0.1,0.3,0.2,0.4c0,0.1,0.1,0.1,0.1,0.2l40.2,64
	c1.4,2.3,3.9,3.5,6.4,3.5c1.4,0,2.7-0.4,4-1.1c3.5-2.2,4.6-6.8,2.4-10.4l-39-62.2L106.4,235.2z"/>
</svg>
