<?xml version="1.0" encoding="utf-8"?>
<!-- Generator: Adobe Illustrator 19.0.0, SVG Export Plug-In . SVG Version: 6.00 Build 0)  -->
<svg version="1.1" id="Layer_1" xmlns="http://www.w3.org/2000/svg" xmlns:xlink="http://www.w3.org/1999/xlink" x="0px" y="0px"
	 viewBox="-173 51.3 512 512" style="enable-background:new -173 51.3 512 512;" xml:space="preserve">
<style type="text/css">
	.st0{fill:#CAD401;}
	.st1{fill:#E4EAF6;}
	.st2{fill:#E2E2E2;}
</style>
<path class="st0" d="M65.4,447.6l18.2-18.3l-62-53.2c-2.7-2.2-6.6-1.7-8.7,1.1l-14.4,21.9l48.7,66.7L65.4,447.6z"/>
<path class="st1" d="M120.1,465.7l48.5-66.9l-14.5-21.8c-2.1-2.8-6-3.2-8.7-1l-61.8,53.4l18.3,18.2L120.1,465.7z"/>
<path class="st0" d="M120.1,465.7l48.5-66.9l-14.5-21.8c-2.1-2.8-6-3.2-8.7-1l-61.8,53.4l18.3,18.2L120.1,465.7z"/>
<path class="st2" d="M-13,271.3c0.1,27.8,10.2,55.9,27.9,77.1c18.5,22.3,42.7,34.5,68,34.5c0,0,0.1,0,0.1,0
	c25.4,0,49.5-12.4,67.9-34.7c17.5-21.3,27.6-49.4,27.5-77.2l0-24.6c13.1-56.8,8.1-104.8,3.8-118c-1.1-3.4-4.5-5.5-7.9-5.1
	c-0.6-0.1-1.2,0-1.8,0c-15,2.2-33.3-1.5-52.7-5.3c-31.3-6.2-66.8-13.3-93.7,5.6c-0.3,0-0.6-0.1-0.9-0.1c0,0,0,0,0,0
	c-15.3,0-28.3,5.9-37.6,17c-8.5,10.1-13.2,24-13.1,39.2c0,25,10.8,71.4,12.5,78.6L-13,271.3z M83,367.9c0,0-0.1,0-0.1,0
	c-20.8,0-40.8-10.3-56.4-29.1C11,320.2,2.1,295.6,2,271.3l0-9.6c0,0,0,0,0,0c0-20.1,13.5-47.5,18.5-56.8
	c72.7-8.5,121.3,11.6,132,16.7l10.9,25.6l0,23.9C163.5,322.5,125.9,367.8,83,367.9z M-0.9,150.1c6.4-7.6,15.4-11.6,26.1-11.7
	c0.6,0,1.1-0.1,1.7-0.2c2.1,0.5,4.4,0.1,6.2-1.3c21.8-16.6,53.2-10.3,83.7-4.3c16.1,3.2,31.6,6.3,45.9,6.3c2.2,0,4.4-0.1,6.5-0.2
	c2.5,13.6,4.7,43.9-1.1,81.3l-3-6.9c-0.7-1.6-1.8-2.8-3.3-3.7c-2.3-1.3-57.2-30.5-146.5-19.1c-2.5,0.1-4.8,1.5-6.1,3.8
	C8.7,195,1.3,208-4.8,224.3c-2.9-15.3-5.6-32.9-5.7-44.7C-10.5,168-7.1,157.6-0.9,150.1z"/>
<path class="st2" d="M221,401.4c-0.2,0-0.3-0.1-0.5-0.1l-47.9-9.9l-12.8-19.3c-0.1-0.1-0.2-0.2-0.3-0.4c-2.6-3.4-6.6-5.4-10.9-5.4
	c-3.1,0-6.2,1.1-8.6,3.1c0,0-0.1,0.1-0.1,0.1L83,418.7l-57.1-49c0,0-0.1-0.1-0.1-0.1c-2.4-2-5.5-3.1-8.6-3.1c-4.3,0-8.3,2-10.9,5.5
	c-0.1,0.1-0.2,0.2-0.3,0.4l-12.7,19.3l-47.9,10.1c-0.2,0-0.3,0.1-0.5,0.1c-30,8.5-45.6,38-45.6,62.9l0,15.1c0,6.5,2.8,12.5,7.9,16.9
	c4.8,4.2,11.1,6.5,17.8,6.5c0,0,0,0,0.1,0L64.9,503c0,0,0,0,0,0c0,0,0,0,0,0l36.4-0.1c0,0,0,0,0,0c0,0,0,0,0,0l139.7-0.3
	c14.2,0,25.7-10.6,25.7-23.5l0-15.1C266.8,439.2,251,409.7,221,401.4z M148.4,382l10.5,15.8l-40.3,55.6L94,429L148.4,382z
	 M77.4,470.9c0.1,0,0.2,0,0.3,0c0,0,0,0,0,0l10.7,0c0.1,0,0.2,0,0.3,0l3.4,17l-18.1,0L77.4,470.9z M91.6,451c0,2.8-1.7,4.9-3.2,4.9
	l-10.7,0c0,0,0,0,0,0c-0.8,0-1.5-0.6-1.9-1c-0.8-1-1.3-2.4-1.3-3.9l0-3.3l8.5-8.5l8.5,8.5L91.6,451z M17.5,382.3L72,429l-24.5,24.6
	L7,398.2L17.5,382.3z M-74.9,488.2C-74.9,488.2-74.9,488.2-74.9,488.2c-3.1,0-5.9-1-7.9-2.8c-1-0.9-2.8-2.8-2.8-5.6l0-15.1
	c0-19.1,11.8-41.8,34.4-48.3l45.9-9.7l45.9,62.8c1.3,1.8,3.3,2.9,5.5,3.1c0.2,0,0.4,0,0.6,0c2,0,3.9-0.8,5.3-2.2l9.8-9.8
	c0.5,1,1.1,2,1.8,3c0,0,0,0,0,0.1L58.7,488L-74.9,488.2z M241.1,487.6l-133.6,0.2l-4.9-24.3c0,0,0,0,0-0.1c0.7-0.9,1.3-1.9,1.8-3
	l9.8,9.8c1.4,1.4,3.3,2.2,5.3,2.2c0.2,0,0.4,0,0.6,0c2.2-0.2,4.2-1.3,5.5-3.1l45.6-63l45.9,9.5c22.7,6.4,34.6,29.1,34.6,48.2l0,15.1
	C251.8,483.7,246.9,487.6,241.1,487.6z"/>
<path class="st2" d="M-109,286.5c0.1,40,28.8,72.4,64.1,72.4c0,0,0.1,0,0.1,0c12.9,0,25.4-4.4,36-12.6c3.3-2.5,3.9-7.3,1.4-10.5
	c-2.5-3.3-7.3-3.9-10.5-1.4c-8,6.1-17.2,9.4-26.8,9.4c0,0-0.1,0-0.1,0c-27,0-49-25.7-49.1-57.4l0-4.7l0,0c0-12.9,5.3-30,8-37.8
	c17.5-1.6,33.1,0.6,45.8,2.5l1.4,0.2c0.4,0.1,0.7,0.1,1.1,0.1c3.7,0,6.9-2.7,7.4-6.4c0.6-4.1-2.2-7.9-6.4-8.5l-1.4-0.2
	c-14.7-2.1-33-4.8-54.3-2c0,0-0.1,0-0.1,0h0c0,0,0,0,0,0c-0.2,0-0.5,0.1-0.7,0.1c-0.1,0-0.2,0.1-0.3,0.1c-0.1,0-0.3,0.1-0.4,0.1
	c-0.1,0-0.3,0.1-0.4,0.2c-0.1,0-0.2,0.1-0.3,0.1c-0.1,0.1-0.3,0.1-0.4,0.2c-0.1,0-0.2,0.1-0.2,0.1c-0.1,0.1-0.2,0.1-0.4,0.2
	c-0.1,0.1-0.2,0.1-0.3,0.2c-0.1,0.1-0.2,0.1-0.3,0.2c-0.1,0.1-0.2,0.2-0.3,0.2c-0.1,0.1-0.1,0.1-0.2,0.2c-0.1,0.1-0.2,0.2-0.3,0.3
	c-0.1,0.1-0.1,0.1-0.2,0.2c-0.1,0.1-0.2,0.2-0.3,0.4c-0.1,0.1-0.1,0.1-0.2,0.2c-0.1,0.1-0.2,0.2-0.3,0.4c-0.1,0.1-0.1,0.2-0.2,0.3
	c-0.1,0.1-0.1,0.2-0.2,0.3c-0.1,0.2-0.2,0.4-0.3,0.6c0,0,0,0,0,0.1c0,0,0,0,0,0c0,0,0,0,0,0.1c-0.2,0.4-1,2.7-2.2,6.2
	c-0.8-5.9-1.4-11.5-1.4-15.9c0-7.6,1.8-14.3,5.1-19.1c3-4.3,7.1-6.5,12-6.6c0.4,0,0.8,0,1.2-0.1c0.4,0.1,0.8,0.1,1.1,0.1
	c1.6,0,3.2-0.5,4.6-1.5c7.6-5.8,17.3-7.7,31.6-6.4c4.1,0.4,7.8-2.6,8.2-6.8c0.4-4.1-2.6-7.8-6.8-8.2c-10.8-1-26.5-1.3-40,7.8
	c-9.8,0.1-18.3,4.6-24.2,12.9c-5.1,7.2-7.9,17.1-7.8,27.7c0,16.9,6.8,47.7,8,53.3L-109,286.5z"/>
<path class="st2" d="M-117.4,432.2C-117.4,432.2-117.4,432.2-117.4,432.2l-35.7,0.1c-1.5,0-2.9-0.5-3.8-1.3c-0.5-0.4-1.1-1.1-1.1-2
	l0-10.3c0-12.1,7.4-26.4,21.6-30.5l29.5-6.2l15.3,22c1.5,2.1,3.8,3.2,6.2,3.2c1.5,0,3-0.4,4.3-1.3c3.4-2.4,4.2-7.1,1.9-10.5
	l-15.2-21.9l4.9-7.5l31.7,23.6c3.3,2.5,8,1.8,10.5-1.5c2.5-3.3,1.8-8-1.5-10.5l-34.4-25.6c-2.4-1.9-5.6-2.8-8.6-2.4
	c-3.1,0.4-6,2.1-7.9,4.6c-0.1,0.1-0.2,0.2-0.3,0.4l-8.1,12.3l-31.6,6.7c-0.2,0-0.3,0.1-0.5,0.1c-21.6,6.1-32.8,27.3-32.8,45.1
	l0,10.3c0,5,2.3,9.9,6.2,13.3c3.7,3.2,8.6,5,13.7,5c0,0,0,0,0,0l35.7-0.1c4.2,0,7.5-3.4,7.5-7.5
	C-109.8,435.6-113.2,432.2-117.4,432.2z"/>
<path class="st2" d="M202.6,182.1c11.8,0.2,24.9,2.3,37.5,4.3c9.7,1.6,19,3,27,3.5c-0.2,19.6-1.5,37.2-2.9,51.3
	c-0.1-0.1-0.1-0.1-0.2-0.1c-0.1-0.1-0.2-0.2-0.3-0.3c-0.1-0.1-0.2-0.1-0.2-0.2c-0.1-0.1-0.3-0.2-0.4-0.3c-0.1,0-0.1-0.1-0.2-0.1
	c-0.1,0-0.1-0.1-0.2-0.1c0,0,0,0-0.1,0c-16-9.6-35.4-15.1-59.2-16.9c-4.1-0.3-7.7,2.8-8,6.9s2.8,7.7,6.9,8
	c20.6,1.5,37.2,6,50.8,13.7c1.9,4.4,6.2,15.9,6.2,29.2l0,0l0,4.7c0,15.7-5.2,30.3-14.7,41.2c-9.2,10.5-21.4,16.3-34.2,16.4
	c-9.6,0-18.9-3.2-26.9-9.3c-3.3-2.5-8-1.9-10.5,1.4c-2.5,3.3-1.9,8,1.4,10.5c10.6,8.1,23,12.4,35.9,12.4c0,0,0.1,0,0.1,0
	c17.3,0,33.4-7.7,45.5-21.5c11.9-13.6,18.5-31.8,18.4-51.2l0-8.7c1.1-5.8,7.7-43.2,7.7-92.7c0.2-0.8,0.3-1.6,0.2-2.4
	c-0.2-4-3.6-7.1-7.6-7.1c-0.1,0-0.1,0-0.2,0c0,0,0,0,0,0c-0.2,0-0.3,0-0.5,0c-7.8,0.4-19.4-1.4-31.7-3.4c-12.5-2-26.7-4.3-39.6-4.5
	c-4.1-0.1-7.6,3.2-7.6,7.4C195.2,178.6,198.5,182.1,202.6,182.1z"/>
<path class="st2" d="M339,417.7c0-17.8-11.4-39-33-45c-0.2,0-0.3-0.1-0.5-0.1l-31.7-6.6l-8.1-12.3c-0.1-0.1-0.2-0.2-0.3-0.4
	c-1.9-2.5-4.8-4.2-7.9-4.6c-3.1-0.4-6.2,0.5-8.6,2.4L214.7,377c-3.3,2.5-4,7.2-1.5,10.5c2.5,3.3,7.2,4,10.5,1.5l31.6-23.7l4.9,7.4
	l-15.2,22c-2.4,3.4-1.5,8.1,1.9,10.5c1.3,0.9,2.8,1.3,4.3,1.3c2.4,0,4.7-1.1,6.2-3.2l15.2-22l29.5,6.1c14.2,4.1,21.7,18.4,21.7,30.5
	l0,10.3c0,1.6-2,3.4-4.9,3.4l-35.7,0.1c-4.1,0-7.5,3.4-7.5,7.5c0,4.1,3.4,7.5,7.5,7.5c0,0,0,0,0,0l35.7-0.1c11,0,19.9-8.3,19.9-18.4
	L339,417.7z"/>
</svg>
