<?xml version="1.0" encoding="utf-8"?>
<!-- Generator: Adobe Illustrator 19.0.0, SVG Export Plug-In . SVG Version: 6.00 Build 0)  -->
<svg version="1.1" id="Layer_1" xmlns="http://www.w3.org/2000/svg" xmlns:xlink="http://www.w3.org/1999/xlink" x="0px" y="0px"
	 viewBox="-173 51.3 512 512" style="enable-background:new -173 51.3 512 512;" xml:space="preserve">
<style type="text/css">
	.st0{fill:#CAD401;}
	.st1{fill:#FFFFFF;}
	.st2{fill:#E2E2E2;}
</style>
<path class="st0" d="M328.7,172.1h-491.3v-44.5c0-16,13-29.1,29.1-29.1h433.2c16,0,29.1,13,29.1,29.1L328.7,172.1L328.7,172.1z"/>
<path class="st1" d="M-101.2,133.6h-3c-6.6,0-12-5.4-12-12v-48c0-6.6,5.4-12,12-12h3c6.6,0,12,5.4,12,12v48
	C-89.2,128.2-94.6,133.6-101.2,133.6z"/>
<path class="st1" d="M267.5,133.6h-3c-6.6,0-12-5.4-12-12v-48c0-6.6,5.4-12,12-12h3c6.6,0,12,5.4,12,12v48
	C279.6,128.2,274.2,133.6,267.5,133.6z"/>
<circle class="st2" cx="83.3" cy="443.5" r="67"/>
<circle class="st2" cx="83.3" cy="443.5" r="16"/>
<path class="st2" d="M338.3,130.9c0-21.8-17.8-39.5-39.5-39.5c0,0-0.1,0-0.1,0l-8.5,0l0-16.5c0-12.9-10.6-23.5-23.6-23.5
	c-13,0-23.5,10.6-23.5,23.6l0,16.5L-78,92.1l0-16.5c0-12.9-10.6-23.5-23.6-23.5c-6.3,0-12.2,2.5-16.6,6.9s-6.9,10.4-6.9,16.6l0,16.5
	l-8.5,0c-10.5,0-20.4,4.2-27.9,11.7c-7.5,7.5-11.6,17.4-11.6,27.9l0.7,352.2c0,10.5,4.2,20.4,11.7,27.9c7.5,7.5,17.4,11.6,27.9,11.6
	c0,0,0.1,0,0.1,0l88.1-0.2c4.1,0,7.5-3.4,7.5-7.5c0-4.1-3.4-7.5-7.5-7.5c0,0,0,0,0,0l-88.1,0.2c0,0,0,0,0,0
	c-6.5,0-12.6-2.5-17.3-7.2c-4.7-4.6-7.2-10.8-7.2-17.3l-0.6-304.7l384.8-0.7c4.1,0,7.5-3.4,7.5-7.5c0-4.1-3.4-7.5-7.5-7.5
	c0,0,0,0,0,0l-384.8,0.7l-0.1-32.5c0-6.5,2.5-12.7,7.2-17.3c4.6-4.7,10.8-7.2,17.3-7.2l8.5,0l0,16.5c0,12.9,10.6,23.5,23.5,23.5
	c0,0,0,0,0,0c6.3,0,12.2-2.5,16.6-6.9s6.9-10.4,6.9-16.6l0-16.5l321.2-0.6l0,16.5c0,12.9,10.6,23.5,23.5,23.5c0,0,0,0,0,0
	c13,0,23.5-10.6,23.5-23.6l0-16.5l8.5,0c0,0,0,0,0,0c13.5,0,24.5,11,24.5,24.5l0.1,32.5l-16.5,0c-4.1,0-7.5,3.4-7.5,7.5
	c0,4.1,3.4,7.5,7.5,7.5c0,0,0,0,0,0l16.5,0l0.6,304.7c0,6.5-2.5,12.7-7.2,17.3c-4.6,4.7-10.8,7.2-17.3,7.2l-88.1,0.2
	c-4.1,0-7.5,3.4-7.5,7.5c0,4.1,3.4,7.5,7.5,7.5c0,0,0,0,0,0l88.1-0.2c21.8,0,39.5-17.8,39.5-39.6L338.3,130.9z M-95.4,129.7
	c-1.6,1.6-3.7,2.5-6,2.5l0,7.5v-7.5c-4.7,0-8.5-3.8-8.5-8.5l0-24c0,0,0,0,0,0s0,0,0,0l0-24c0-2.3,0.9-4.4,2.5-6s3.7-2.5,6-2.5
	c4.7,0,8.5,3.8,8.5,8.5l0.1,48C-93,125.9-93.8,128.1-95.4,129.7z M272.8,129c-1.6,1.6-3.7,2.5-6,2.5l0,7.5v-7.5
	c-4.7,0-8.5-3.8-8.5-8.5l-0.1-48c0-4.7,3.8-8.5,8.5-8.5c4.7,0,8.5,3.8,8.5,8.5l0,24c0,0,0,0,0,0c0,0,0,0,0,0l0,24
	C275.3,125.2,274.4,127.4,272.8,129z"/>
<path class="st2" d="M282.4,171c0-4.1-3.4-7.5-7.5-7.5c0,0,0,0,0,0l-16,0c-4.1,0-7.5,3.4-7.5,7.5c0,4.1,3.4,7.5,7.5,7.5c0,0,0,0,0,0
	l16,0C279,178.5,282.4,175.1,282.4,171z"/>
<path class="st2" d="M90.9,235.9C90.9,235.9,90.9,235.9,90.9,235.9l-16,0c-4.1,0-7.5,3.4-7.5,7.5c0,4.1,3.4,7.5,7.5,7.5c0,0,0,0,0,0
	l16,0c4.1,0,7.5-3.4,7.5-7.5C98.4,239.2,95,235.9,90.9,235.9z"/>
<path class="st2" d="M90.9,275.9l-16,0c-4.1,0-7.5,3.4-7.5,7.5c0,4.1,3.4,7.5,7.5,7.5c0,0,0,0,0,0l16,0c4.1,0,7.5-3.4,7.5-7.5
	C98.5,279.3,95.1,275.9,90.9,275.9C91,275.9,91,275.9,90.9,275.9z"/>
<path class="st2" d="M146.9,235.8C146.9,235.8,146.9,235.8,146.9,235.8l-16,0c-4.1,0-7.5,3.4-7.5,7.5c0,4.1,3.4,7.5,7.5,7.5
	c0,0,0,0,0,0l16,0c4.1,0,7.5-3.4,7.5-7.5C154.4,239.1,151.1,235.8,146.9,235.8z"/>
<path class="st2" d="M147,275.8l-16,0c-4.1,0-7.5,3.4-7.5,7.5c0,4.1,3.4,7.5,7.5,7.5c0,0,0,0,0,0l16,0c4.1,0,7.5-3.4,7.5-7.5
	C154.5,279.2,151.1,275.8,147,275.8C147,275.8,147,275.8,147,275.8z"/>
<path class="st2" d="M34.8,236C34.8,236,34.8,236,34.8,236l-16,0c-4.1,0-7.5,3.4-7.5,7.5c0,4.1,3.4,7.5,7.5,7.5c0,0,0,0,0,0l16,0
	c4.1,0,7.5-3.4,7.5-7.5C42.3,239.3,39,236,34.8,236z"/>
<path class="st2" d="M34.9,276l-16,0c-4.1,0-7.5,3.4-7.5,7.5c0,4.1,3.4,7.5,7.5,7.5c0,0,0,0,0,0l16,0c4.1,0,7.5-3.4,7.5-7.5
	C42.4,279.4,39.1,276,34.9,276C34.9,276,34.9,276,34.9,276z"/>
<path class="st2" d="M-37.2,251.1l16,0c4.1,0,7.5-3.4,7.5-7.5c0-4.1-3.4-7.5-7.5-7.5c0,0,0,0,0,0l-16,0c-4.1,0-7.5,3.4-7.5,7.5
	C-44.7,247.8-41.3,251.1-37.2,251.1C-37.2,251.1-37.2,251.1-37.2,251.1z"/>
<path class="st2" d="M-37.1,291.2C-37.1,291.2-37.1,291.2-37.1,291.2l16,0c4.1,0,7.5-3.4,7.5-7.5c0-4.1-3.4-7.5-7.5-7.5c0,0,0,0,0,0
	l-16,0c-4.1,0-7.5,3.4-7.5,7.5C-44.6,287.8-41.3,291.2-37.1,291.2z"/>
<path class="st2" d="M-37.1,331.2C-37,331.2-37,331.2-37.1,331.2l16,0c4.1,0,7.5-3.4,7.5-7.5s-3.3-7.5-7.5-7.5l-16,0
	c-4.1,0-7.5,3.4-7.5,7.5C-44.5,327.8-41.2,331.2-37.1,331.2z"/>
<path class="st2" d="M-37,371.2c2,0,3.9-0.8,5.3-2.2c1.4-1.4,2.2-3.3,2.2-5.3c0-2-0.8-3.9-2.2-5.3c-1.4-1.4-3.3-2.2-5.3-2.2
	c-2,0-3.9,0.8-5.3,2.2c-1.4,1.4-2.2,3.3-2.2,5.3s0.8,3.9,2.2,5.3C-40.9,370.4-38.9,371.2-37,371.2z"/>
<path class="st2" d="M203,235.7C203,235.7,202.9,235.7,203,235.7l-16,0c-4.1,0-7.5,3.4-7.5,7.5c0,4.1,3.4,7.5,7.5,7.5c0,0,0,0,0,0
	l16,0c4.1,0,7.5-3.4,7.5-7.5C210.5,239,207.1,235.7,203,235.7z"/>
<path class="st2" d="M203,275.7C203,275.7,203,275.7,203,275.7l-16,0c-4.1,0-7.5,3.4-7.5,7.5c0,4.1,3.4,7.5,7.5,7.5c0,0,0,0,0,0
	l16,0c4.1,0,7.5-3.4,7.5-7.5C210.5,279.1,207.2,275.7,203,275.7z"/>
<path class="st2" d="M203.1,315.7l-16,0c-4.1,0-7.5,3.4-7.5,7.5c0,4.1,3.4,7.5,7.5,7.5c0,0,0,0,0,0l16,0c4.1,0,7.5-3.4,7.5-7.5
	C210.6,319.1,207.2,315.7,203.1,315.7C203.1,315.7,203.1,315.7,203.1,315.7z"/>
<path class="st2" d="M210.7,363.3c0-2-0.8-3.9-2.2-5.3c-1.4-1.4-3.3-2.2-5.3-2.2c-2,0-3.9,0.8-5.3,2.2c-1.4,1.4-2.2,3.3-2.2,5.3
	s0.8,3.9,2.2,5.3c1.4,1.4,3.3,2.2,5.3,2.2c2,0,3.9-0.8,5.3-2.2C209.9,367.2,210.7,365.2,210.7,363.3z"/>
<path class="st2" d="M235.5,243.1c0,4.1,3.4,7.5,7.5,7.5c0,0,0,0,0,0l16,0c4.1,0,7.5-3.4,7.5-7.5c0-4.1-3.4-7.5-7.5-7.5c0,0,0,0,0,0
	l-16,0C238.8,235.6,235.5,239,235.5,243.1z"/>
<path class="st2" d="M243.1,290.6l16,0c4.1,0,7.5-3.4,7.5-7.5c0-4.1-3.4-7.5-7.5-7.5c0,0,0,0,0,0l-16,0c-4.1,0-7.5,3.4-7.5,7.5
	C235.6,287.3,238.9,290.6,243.1,290.6C243.1,290.6,243.1,290.6,243.1,290.6z"/>
<path class="st2" d="M243.1,330.7C243.1,330.7,243.1,330.7,243.1,330.7l16,0c4.1,0,7.5-3.4,7.5-7.5c0-4.1-3.4-7.5-7.5-7.5
	c0,0,0,0,0,0l-16,0c-4.1,0-7.5,3.4-7.5,7.5C235.6,327.3,239,330.7,243.1,330.7z"/>
<path class="st2" d="M243.2,370.7C243.2,370.7,243.2,370.7,243.2,370.7l16,0c4.1,0,7.5-3.4,7.5-7.5c0-4.1-3.4-7.5-7.5-7.5
	c0,0,0,0,0,0l-16,0c-4.1,0-7.5,3.4-7.5,7.5C235.7,367.3,239.1,370.7,243.2,370.7z"/>
<path class="st2" d="M243.3,410.7C243.3,410.7,243.3,410.7,243.3,410.7l16,0c4.1,0,7.5-3.4,7.5-7.5c0-4.1-3.4-7.5-7.5-7.5
	c0,0,0,0,0,0l-16,0c-4.1,0-7.5,3.4-7.5,7.5C235.8,407.4,239.1,410.7,243.3,410.7z"/>
<path class="st2" d="M243.4,450.7C243.4,450.7,243.4,450.7,243.4,450.7l16,0c4.1,0,7.5-3.4,7.5-7.5c0-4.1-3.4-7.5-7.5-7.5
	c0,0,0,0,0,0l-16,0c-4.1,0-7.5,3.4-7.5,7.5C235.9,447.4,239.2,450.7,243.4,450.7z"/>
<path class="st2" d="M-93.2,251.2l16,0c4.1,0,7.5-3.4,7.5-7.5c0-4.1-3.4-7.5-7.5-7.5c0,0,0,0,0,0l-16,0c-4.1,0-7.5,3.4-7.5,7.5
	C-100.7,247.9-97.4,251.2-93.2,251.2C-93.2,251.2-93.2,251.2-93.2,251.2z"/>
<path class="st2" d="M-93.2,291.3C-93.2,291.3-93.2,291.3-93.2,291.3l16,0c4.1,0,7.5-3.4,7.5-7.5c0-4.1-3.4-7.5-7.5-7.5c0,0,0,0,0,0
	l-16,0c-4.1,0-7.5,3.4-7.5,7.5C-100.7,287.9-97.3,291.3-93.2,291.3z"/>
<path class="st2" d="M-93.1,331.3C-93.1,331.3-93.1,331.3-93.1,331.3l16,0c4.1,0,7.5-3.4,7.5-7.5c0-4.1-3.4-7.5-7.5-7.5c0,0,0,0,0,0
	l-16,0c-4.1,0-7.5,3.4-7.5,7.5C-100.6,327.9-97.2,331.3-93.1,331.3z"/>
<path class="st2" d="M-93,371.3C-93,371.3-93,371.3-93,371.3l16,0c4.1,0,7.5-3.4,7.5-7.5c0-4.1-3.4-7.5-7.5-7.5c0,0,0,0,0,0l-16,0
	c-4.1,0-7.5,3.4-7.5,7.5C-100.5,368-97.2,371.3-93,371.3z"/>
<path class="st2" d="M-92.9,411.4C-92.9,411.4-92.9,411.4-92.9,411.4l16,0c4.1,0,7.5-3.4,7.5-7.5c0-4.1-3.4-7.5-7.5-7.5c0,0,0,0,0,0
	l-16,0c-4.1,0-7.5,3.4-7.5,7.5C-100.4,408-97.1,411.4-92.9,411.4z"/>
<path class="st2" d="M-92.9,451.4C-92.9,451.4-92.9,451.4-92.9,451.4l16,0c4.1,0,7.5-3.4,7.5-7.5c0-4.1-3.4-7.5-7.5-7.5c0,0,0,0,0,0
	l-16,0c-4.1,0-7.5,3.4-7.5,7.5C-100.4,448-97,451.4-92.9,451.4z"/>
<path class="st2" d="M83.3,324H83h0c-65.9,0.1-119.5,53.9-119.4,119.8c0.1,65.8,53.8,119.4,119.6,119.4h0.2h0
	c31.9-0.1,61.9-12.6,84.5-35.2c22.5-22.6,34.9-52.7,34.9-84.6C202.7,377.5,149.1,324,83.3,324z M157.3,517.3
	c-17.9,18-41.3,28.7-66.4,30.5l0-8.2c0-4.1-3.4-7.5-7.5-7.5c0,0,0,0,0,0c-4.1,0-7.5,3.4-7.5,7.5l0,8.2c-51.7-3.6-93.2-45-97-96.6
	l8.2,0c4.1,0,7.5-3.4,7.5-7.5c0-4.1-3.4-7.5-7.5-7.5c0,0,0,0,0,0l-8.2,0c3.6-51.7,44.9-93.2,96.6-97l0,8.2c0,4.1,3.4,7.5,7.5,7.5
	c0,0,0,0,0,0c4.1,0,7.5-3.4,7.5-7.5l0-8.2c51.7,3.6,93.2,45,97,96.6l-8.2,0c-4.1,0-7.5,3.4-7.5,7.5c0,4.1,3.4,7.5,7.5,7.5
	c0,0,0,0,0,0l8.2,0C185.9,476,175.3,499.3,157.3,517.3z"/>
<path class="st0" d="M147.3,435.9C147.3,435.9,147.3,435.9,147.3,435.9l-41.8,0.1c-2.4-6.9-7.9-12.4-14.8-14.7l-0.1-41.8
	c0-4.1-3.4-7.5-7.5-7.5c0,0,0,0,0,0c-4.1,0-7.5,3.4-7.5,7.5l0.1,41.8c-9.3,3.2-16,12-16,22.3c0,12.9,10.6,23.5,23.5,23.5
	c0,0,0,0,0,0c6.3,0,12.2-2.5,16.6-6.9c2.6-2.6,4.5-5.7,5.6-9.1l41.8-0.1c4.1,0,7.5-3.4,7.5-7.5C154.8,439.3,151.4,435.9,147.3,435.9
	z M89.3,449.5c-1.6,1.6-3.7,2.5-6,2.5l0,7.5V452c-4.7,0-8.5-3.8-8.5-8.5c0-4.7,3.8-8.5,8.5-8.5c4.7,0,8.5,3.8,8.5,8.5
	C91.8,445.8,90.9,447.9,89.3,449.5z"/>
</svg>
