<?xml version="1.0" encoding="utf-8"?>
<!-- Generator: Adobe Illustrator 19.0.0, SVG Export Plug-In . SVG Version: 6.00 Build 0)  -->
<svg version="1.1" id="Layer_1" xmlns="http://www.w3.org/2000/svg" xmlns:xlink="http://www.w3.org/1999/xlink" x="0px" y="0px"
	 viewBox="-173 51.3 512 512" style="enable-background:new -173 51.3 512 512;" xml:space="preserve">
<style type="text/css">
	.st0{fill:#E4EAF6;}
	.st1{fill:#E2E2E2;}
	.st2{fill:#CAD401;}
</style>
<path class="st0" d="M47.5,525.1L96,458.2l-14.4-21.8c-2.1-2.8-6-3.2-8.7-1l-61.8,53.4l18.2,18.2L47.5,525.1z"/>
<path class="st1" d="M-84.9,318.6l0,13c0.1,27.7,10.2,55.8,27.9,77c18.5,22.2,42.6,34.5,67.9,34.5c0,0,0.1,0,0.1,0
	c25.3,0,49.4-12.4,67.8-34.7c17.5-21.2,27.5-49.3,27.5-77.1v-0.1c0-4.1-3.4-7.5-7.5-7.5c0,0,0,0,0,0c-4.1,0-7.5,3.4-7.5,7.5v0.1
	c0,24.3-8.7,48.9-24.1,67.5C51.8,417.6,31.8,428,11,428.1c0,0-0.1,0-0.1,0c-20.7,0-40.8-10.3-56.4-29.1
	c-15.5-18.6-24.3-43.1-24.4-67.4l0-9.6c0,0,0,0,0,0c0-20.1,13.5-47.4,18.4-56.7c32.3-3.8,63.4-2.5,92.6,3.9c0.5,0.1,1.1,0.2,1.6,0.2
	c3.5,0,6.6-2.4,7.3-5.9c0.9-4.1-1.7-8.1-5.7-8.9c-31.8-7-65.8-8.2-100.9-3.7c-2.5,0.1-4.8,1.4-6.2,3.8c-0.5,0.9-8,14-14.1,30.4
	c-2.9-15.2-5.7-32.8-5.8-44.7c0-24.2,15-41.2,36.6-41.2c0,0,0,0,0,0c0,0,0,0,0,0c0,0,0,0,0,0c0.4,0,0.7,0,1-0.1c0.1,0,0.2,0,0.2,0
	c0.3-0.1,0.7-0.1,1-0.2c0,0,0.1,0,0.1-0.1c0.3-0.1,0.6-0.2,1-0.4c0,0,0.1,0,0.1-0.1c0.3-0.2,0.6-0.4,0.9-0.6c0,0,0.1,0,0.1-0.1
	c18.5-14.1,47-11.3,66.8-8c4.1,0.7,8-2.1,8.6-6.2c0.7-4.1-2.1-8-6.2-8.6c-21.9-3.7-53.3-6.6-76.3,9.4c-28.6,1.3-49.1,24.6-49.1,56.2
	l0,0l0,0C-97.5,265.3-86.6,311.4-84.9,318.6z"/>
<path class="st1" d="M148.9,461.5c-0.2,0-0.3-0.1-0.5-0.1l-47.9-9.9l-12.7-19.2c-0.1-0.1-0.2-0.2-0.3-0.4c-2.6-3.4-6.6-5.4-10.8-5.4
	c-3.1,0-6.2,1.1-8.6,3.1c0,0-0.1,0.1-0.1,0.1L11,478.8L-46,429.9c0,0-0.1-0.1-0.1-0.1c-2.4-2-5.5-3.1-8.6-3.1c-4.3,0-8.3,2-10.9,5.5
	c-0.1,0.1-0.2,0.2-0.3,0.4l-12.7,19.3l-47.8,10.1c-0.2,0-0.3,0.1-0.5,0.1c-30,8.5-45.6,38-45.5,62.8l0,15.1
	c0,12.9,11.5,23.4,25.7,23.4c0,0,0,0,0.1,0L-7,563c0,0,0,0,0,0c0,0,0,0,0,0l36.3-0.1c0,0,0,0,0,0c0,0,0,0,0,0l139.6-0.3
	c6.7,0,13-2.3,17.8-6.6c5.1-4.5,7.9-10.5,7.9-16.9l0-15.1C194.6,499.3,178.8,469.9,148.9,461.5z M76.4,442.2L86.8,458l-40.2,55.5
	l-24.5-24.4L76.4,442.2z M5.5,531c0.1,0,0.2,0,0.3,0c0,0,0,0,0,0l10.7,0c0.1,0,0.2,0,0.3,0l3.4,17l-18.1,0L5.5,531z M19.6,511.1
	c0,2.8-1.7,4.9-3.2,4.9l-10.7,0c0,0,0,0,0,0c-0.8,0-1.5-0.6-1.9-1c-0.8-1-1.3-2.4-1.3-3.9l0-3.3l8.5-8.5l8.5,8.5L19.6,511.1z
	 M-54.4,442.5L0,489.2l-24.4,24.5l-40.4-55.4L-54.4,442.5z M-146.6,548.3C-146.6,548.3-146.6,548.3-146.6,548.3
	c-5.8,0-10.7-3.9-10.7-8.4l0-15.1c0-19.1,11.8-41.7,34.4-48.2l45.8-9.7l45.8,62.7c1.3,1.8,3.3,2.9,5.5,3.1c0.2,0,0.4,0,0.6,0
	c2,0,3.9-0.8,5.3-2.2l9.8-9.8c0.5,1,1.1,2,1.8,3c0,0,0,0,0,0.1l-4.8,24.3L-146.6,548.3z M176.9,544.9c-2.1,1.8-4.9,2.8-7.9,2.8
	l-133.4,0.3l-4.9-24.3c0,0,0,0,0-0.1c0.7-0.9,1.3-1.9,1.8-3l9.8,9.8c1.4,1.4,3.3,2.2,5.3,2.2c0.2,0,0.4,0,0.6,0
	c2.2-0.2,4.2-1.3,5.5-3.1l45.6-62.9l45.9,9.5c22.6,6.4,34.5,29,34.5,48.1l0,15.1C179.7,542,177.9,543.9,176.9,544.9z"/>
<path class="st1" d="M194.8,51.3h-0.3C115.3,51.4,51,116,51.2,195.2c0.1,79,64.6,143.3,143.6,143.3h0.3
	c79.2-0.1,143.5-64.7,143.3-143.9C338.2,115.6,273.8,51.3,194.8,51.3z M195,323.5h-0.2c-70.8,0-128.5-57.6-128.6-128.4
	C66,124.2,123.6,66.4,194.5,66.3h0.2c70.8,0,128.5,57.6,128.6,128.4C323.5,265.6,265.9,323.3,195,323.5z"/>
<path class="st2" d="M282.2,130.7c0-0.2,0-0.5,0-0.7c0-0.1,0-0.2,0-0.3c0-0.1,0-0.3-0.1-0.4c0-0.1-0.1-0.3-0.1-0.4
	c0-0.1-0.1-0.2-0.1-0.3c0-0.1-0.1-0.2-0.1-0.4c0-0.1-0.1-0.2-0.1-0.3c0-0.1-0.1-0.2-0.2-0.3c-0.1-0.1-0.1-0.2-0.2-0.3
	c-0.1-0.1-0.1-0.2-0.2-0.3c-0.1-0.1-0.1-0.2-0.2-0.3c-0.1-0.1-0.2-0.2-0.2-0.3c-0.1-0.1-0.1-0.2-0.2-0.3c-0.2-0.2-0.3-0.4-0.5-0.6
	l0,0c0,0,0,0,0,0c-0.2-0.2-0.3-0.3-0.5-0.5c-0.1-0.1-0.2-0.1-0.3-0.2c-0.1-0.1-0.2-0.2-0.3-0.2c-0.1-0.1-0.2-0.1-0.3-0.2
	c-0.1-0.1-0.2-0.1-0.3-0.2c-0.1-0.1-0.2-0.1-0.3-0.2c-0.1-0.1-0.2-0.1-0.3-0.2c-0.1,0-0.2-0.1-0.3-0.1c-0.1,0-0.2-0.1-0.4-0.1
	c-0.1,0-0.2-0.1-0.3-0.1c-0.1,0-0.2-0.1-0.4-0.1c-0.1,0-0.3,0-0.4-0.1c-0.1,0-0.2,0-0.3,0c-0.2,0-0.4,0-0.6,0c0,0-0.1,0-0.1,0
	c0,0,0,0,0,0c0,0,0,0,0,0l-48,0.1c-4.1,0-7.5,3.4-7.5,7.5c0,4.1,3.4,7.5,7.5,7.5c0,0,0,0,0,0l29.9-0.1l-61.8,62.1L176,181.6
	c-2.9-2.9-7.7-2.9-10.6,0l-63.9,64.2c-2.9,2.9-2.9,7.7,0,10.6c1.5,1.5,3.4,2.2,5.3,2.2c1.9,0,3.9-0.7,5.3-2.2l58.6-58.9l18.7,18.7
	c1.5,1.5,3.4,2.2,5.3,2.2c1.9,0,3.9-0.7,5.3-2.2l67.1-67.4l0.1,29.9c0,4.1,3.4,7.5,7.5,7.5c0,0,0,0,0,0c4.1,0,7.5-3.4,7.5-7.5
	L282.2,130.7C282.2,130.7,282.2,130.7,282.2,130.7z"/>
<path class="st2" d="M-7.1,507l18.2-18.2l-62-53.1c-2.7-2.2-6.6-1.7-8.7,1.1L-74,458.5l48.7,66.7L-7.1,507z"/>
<path class="st2" d="M47.5,525.1L96,458.2l-14.4-21.8c-2.1-2.8-6-3.2-8.7-1l-61.8,53.4l18.2,18.2L47.5,525.1z"/>
</svg>
