<?xml version="1.0" encoding="utf-8"?>
<!-- Generator: Adobe Illustrator 19.0.0, SVG Export Plug-In . SVG Version: 6.00 Build 0)  -->
<svg version="1.1" id="Layer_1" xmlns="http://www.w3.org/2000/svg" xmlns:xlink="http://www.w3.org/1999/xlink" x="0px" y="0px"
	 viewBox="-173 51.3 512 512" style="enable-background:new -173 51.3 512 512;" xml:space="preserve">
<style type="text/css">
	.st0{fill:#CAD401;}
	.st1{fill:#E2E2E2;}
</style>
<path class="st0" d="M130.6,74.7l-25.5,0c-3.3-9.3-12.1-16-22.6-16S63.3,65.5,60,74.9l-25.5,0c-17.7,0-32,14.4-32,32.1l0.1,32
	l160.2-0.3l0-16l0-16C162.7,89,148.3,74.7,130.6,74.7z"/>
<path class="st1" d="M282.4,122.5c0-21.8-17.8-39.5-39.6-39.5c0,0-0.1,0-0.1,0l-80.1,0.1c-0.1,0-0.2,0-0.3,0
	c-7.2-9.7-18.8-16-31.8-16l-20.7,0c-5.5-9.7-15.9-16-27.4-16c-11.4,0-21.8,6.3-27.3,16.1l-20.7,0C23.9,67.4,14,71.5,6.5,79
	c-1.4,1.4-2.7,2.9-3.8,4.5c-0.1,0-0.1,0-0.2,0c0,0,0,0,0,0l-80.1,0.2c-10.5,0-20.4,4.2-27.9,11.7s-11.6,17.4-11.6,28l0.8,400.5
	c0,10.5,4.2,20.4,11.7,27.9c7.5,7.5,17.4,11.6,27.9,11.6c0,0,0.1,0,0.1,0l320.4-0.6c21.8,0,39.5-17.8,39.5-39.6L282.4,122.5z
	 M17.1,89.6c4.6-4.6,10.8-7.2,17.3-7.2l25.5,0c3.2,0,6-2,7.1-5c2.3-6.6,8.5-11,15.5-11.1c6.9,0,13.1,4.4,15.5,11c1.1,3,3.9,5,7.1,5
	c0,0,0,0,0,0l25.6,0c13.5,0,24.5,11,24.5,24.5l0,24.5L10,131.5l0-24.5C10,100.4,12.5,94.3,17.1,89.6z M243.6,547.7l-320.4,0.6
	c-6.5,0-12.7-2.5-17.3-7.2c-4.7-4.6-7.2-10.8-7.2-17.3l-0.8-400.5c0-6.5,2.5-12.7,7.2-17.3c4.6-4.7,10.8-7.2,17.3-7.2l73.5-0.1
	c-0.6,2.8-0.9,5.6-0.9,8.5l0.1,32c0,4.1,3.4,7.5,7.5,7.5c0,0,0,0,0,0l160.2-0.3c4.1,0,7.5-3.4,7.5-7.5l-0.1-32c0-2.9-0.3-5.8-1-8.5
	l73.5-0.1c0,0,0,0,0,0c13.5,0,24.5,11,24.5,24.5l0.8,400.5C268.2,536.6,257.2,547.6,243.6,547.7z"/>
<path class="st1" d="M242.8,115.1C242.8,115.1,242.8,115.1,242.8,115.1l-48.1,0.1c-4.1,0-7.5,3.4-7.5,7.5c0,4.1,3.4,7.5,7.5,7.5
	c0,0,0,0,0,0l40.6-0.1l0.7,385.5l-305.4,0.6l-0.7-385.5l40.6-0.1c4.1,0,7.5-3.4,7.5-7.5c0-4.1-3.4-7.5-7.5-7.5c0,0,0,0,0,0
	l-48.1,0.1c-2,0-3.9,0.8-5.3,2.2c-1.4,1.4-2.2,3.3-2.2,5.3l0.8,400.5c0,2,0.8,3.9,2.2,5.3c1.4,1.4,3.3,2.2,5.3,2.2c0,0,0,0,0,0
	l320.4-0.6c2,0,3.9-0.8,5.3-2.2c1.4-1.4,2.2-3.3,2.2-5.3l-0.8-400.5C250.3,118.4,247,115.1,242.8,115.1z"/>
<path class="st1" d="M82.6,98.3c2,0,3.9-0.8,5.3-2.2c1.4-1.4,2.2-3.3,2.2-5.3c0-2-0.8-3.9-2.2-5.3c-1.4-1.4-3.3-2.2-5.3-2.2
	c-2,0-3.9,0.8-5.3,2.2c-1.4,1.4-2.2,3.3-2.2,5.3c0,2,0.8,3.9,2.2,5.3C78.6,97.5,80.6,98.3,82.6,98.3z"/>
<path class="st0" d="M-42.6,238c-2.9,2.9-2.9,7.7,0,10.6l24.1,24c1.4,1.4,3.3,2.2,5.3,2.2c0,0,0,0,0,0c2,0,3.9-0.8,5.3-2.2l40-40.1
	c2.9-2.9,2.9-7.7,0-10.6c-2.9-2.9-7.7-2.9-10.6,0l-34.7,34.8L-32,237.9C-35,235-39.7,235-42.6,238z"/>
<path class="st0" d="M21.6,309.9l-34.7,34.8l-18.8-18.7c-2.9-2.9-7.7-2.9-10.6,0c-2.9,2.9-2.9,7.7,0,10.6l24.1,24
	c1.5,1.5,3.4,2.2,5.3,2.2c1.9,0,3.9-0.7,5.3-2.2l40-40.1c2.9-2.9,2.9-7.7,0-10.6C29.3,307,24.5,307,21.6,309.9z"/>
<path class="st0" d="M21.8,398.1l-34.7,34.8l-18.8-18.7c-2.9-2.9-7.7-2.9-10.6,0c-2.9,2.9-2.9,7.7,0,10.6l24.1,24
	c1.4,1.4,3.3,2.2,5.3,2.2c0,0,0,0,0,0c2,0,3.9-0.8,5.3-2.2l40-40.1c2.9-2.9,2.9-7.7,0-10.6C29.4,395.1,24.7,395.1,21.8,398.1z"/>
<path class="st1" d="M66.8,250.6C66.8,250.6,66.8,250.6,66.8,250.6l136.2-0.3c4.1,0,7.5-3.4,7.5-7.5c0-4.1-3.4-7.5-7.5-7.5
	c0,0,0,0,0,0l-136.2,0.3c-4.1,0-7.5,3.4-7.5,7.5C59.3,247.2,62.7,250.6,66.8,250.6z"/>
<path class="st1" d="M203.2,323.4C203.2,323.4,203.2,323.4,203.2,323.4L67,323.7c-4.1,0-7.5,3.4-7.5,7.5c0,4.1,3.4,7.5,7.5,7.5
	c0,0,0,0,0,0l136.2-0.3c4.1,0,7.5-3.4,7.5-7.5C210.7,326.8,207.3,323.4,203.2,323.4z"/>
<path class="st1" d="M203.3,411.5l-136.2,0.3c-4.1,0-7.5,3.4-7.5,7.5c0,4.1,3.4,7.5,7.5,7.5c0,0,0,0,0,0l136.2-0.3
	c4.1,0,7.5-3.4,7.5-7.5C210.8,414.9,207.5,411.5,203.3,411.5C203.3,411.5,203.3,411.5,203.3,411.5z"/>
</svg>
