<?xml version="1.0" encoding="utf-8"?>
<!-- Generator: Adobe Illustrator 19.0.0, SVG Export Plug-In . SVG Version: 6.00 Build 0)  -->
<svg version="1.1" id="Layer_1" xmlns="http://www.w3.org/2000/svg" xmlns:xlink="http://www.w3.org/1999/xlink" x="0px" y="0px"
	 viewBox="-173 51.3 512 512" style="enable-background:new -173 51.3 512 512;" xml:space="preserve">
<style type="text/css">
	.st0{fill:#E4EAF6;}
	.st1{fill:#E2E2E2;}
	.st2{fill:#CAD401;}
</style>
<path class="st0" d="M109,310l35.3-48.8l-10.5-15.9c-1.5-2-4.4-2.4-6.3-0.8l-45,38.9l13.3,13.3L109,310z"/>
<path class="st1" d="M10.4,159.9l0,9.2c0,20.6,7.6,41.4,20.8,57.1c13.9,16.6,32,25.7,51.1,25.7c0,0,0.1,0,0.1,0
	c19.1,0,37.2-9.2,51-25.9c13.1-15.8,20.6-36.6,20.5-57.1l0-17.6c9.7-41.8,6-76.1,2.7-86.2c-1.1-3.3-4.3-5.4-7.7-5.1
	c-0.5,0-1.1,0-1.6,0.1c-10.6,1.5-23.8-1.1-37.7-3.8c-23-4.5-49-9.7-69.2,4c0,0,0,0-0.1,0c-22.7,0-39.1,18-39,42.7l0,0l0,0
	C1.3,120.9,9,153.9,10.4,159.9z M121.9,216.4c-10.9,13.2-25,20.4-39.5,20.4c0,0-0.1,0-0.1,0c-14.5,0-28.6-7.2-39.6-20.3
	c-11-13.1-17.3-30.4-17.3-47.5l0-7c0-12.4,8-30.2,12.7-39.1c50.5-5.6,84.6,7.7,93.4,11.7l7.5,17.4l0,16.9
	C139,186,132.8,203.3,121.9,216.4z M40.3,75.1c0.4,0,0.8,0,1.2-0.1c2,0.3,4-0.1,5.7-1.4c15.1-11.5,37.6-7,59.4-2.7
	c11.9,2.3,23.2,4.6,33.8,4.6c1,0,2.1,0,3.1-0.1c1.5,9.4,2.6,27.3-0.2,49.4c-0.7-1-1.5-1.8-2.6-2.3c-1.7-0.9-42.2-22.3-107.9-14
	c-2.4,0.1-4.8,1.5-6.1,3.7c-0.3,0.5-4,6.9-7.7,15.7c-1.6-9-2.8-18.4-2.8-25.1C16.3,89,23.7,75.1,40.3,75.1z"/>
<path class="st1" d="M-32.6,338.9C-32.6,338.9-32.6,338.9-32.6,338.9l131.3-0.2c0,0,0,0,0,0c0,0,0,0,0,0h0l98.9-0.2
	c5.4,0,10.4-1.9,14.3-5.2c4.1-3.6,6.5-8.6,6.4-13.8l0-10.9c0-18.7-12-41-34.9-47.3c-0.2,0-0.3-0.1-0.5-0.1l-34.1-7l-8.8-13.2
	c-0.1-0.1-0.2-0.2-0.3-0.4c-2.2-3-5.8-4.7-9.5-4.7c-2.7,0-5.4,1-7.6,2.7c0,0-0.1,0.1-0.1,0.1l-40.2,34.5l-40.3-34.3
	c0,0-0.1-0.1-0.1-0.1c-2.1-1.7-4.8-2.7-7.5-2.7c-3.7,0-7.3,1.8-9.6,4.8c-0.1,0.1-0.2,0.2-0.3,0.4l-8.8,13.3l-34.1,7.1
	c-0.2,0-0.3,0.1-0.5,0.1c-22.8,6.4-34.7,28.7-34.7,47.5l0,10.9C-53.4,330.3-44.1,338.9-32.6,338.9z M74.1,302l8.4-8.6l8.6,8.6
	l0,21.5l-17,0L74.1,302z M203.3,308.5l0,10.9c0,1.1-0.7,2-1.3,2.5c-1.1,1-2.7,1.5-4.5,1.5l-91.4,0.2l0-9c0.2,0,0.3,0,0.5,0
	c0.1,0,0.3,0,0.4,0c2.1-0.1,4.1-1.1,5.4-2.8l34.8-42.8l32.4,6.7C195.1,280.1,203.3,295.5,203.3,308.5z M129.6,252.2l5.4,8.1
	l-29,35.6l-12.6-12.6L129.6,252.2z M35.1,252.4l36.3,30.9L59,295.9l-29.3-35.5L35.1,252.4z M-14.9,276l32.4-6.8l35.3,42.7
	c1.4,1.6,3.3,2.6,5.5,2.7c0.1,0,0.2,0,0.3,0c0.2,0,0.3,0,0.5,0l0,9l-91.7,0.2c0,0,0,0,0,0c-3.4,0-5.8-2.1-5.8-4l0-10.9
	C-38.4,295.9-30.4,280.5-14.9,276z"/>
<path class="st1" d="M235.5,427l0.1,48.1c0,4.1,3.4,7.5,7.5,7.5c0,0,0,0,0,0c4.1,0,7.5-3.4,7.5-7.5l-0.1-48.1
	c0-21.8-17.8-39.5-39.6-39.5c0,0,0,0-0.1,0l-120.7,0.2l0-24.5c0-4.1-3.4-7.5-7.5-7.5c0,0,0,0,0,0c-4.1,0-7.5,3.4-7.5,7.5l0,24.5
	L-45.5,388c-10.5,0-20.4,4.2-27.9,11.7s-11.6,17.4-11.6,28l0.1,48.1c0,4.1,3.4,7.5,7.5,7.5c0,0,0,0,0,0c4.1,0,7.5-3.4,7.5-7.5
	l-0.1-48.1c0-6.5,2.5-12.7,7.2-17.3S-52,403-45.4,403l120.7-0.2l0.1,72.6c0,4.1,3.4,7.5,7.5,7.5c0,0,0,0,0,0c4.1,0,7.5-3.4,7.5-7.5
	l-0.1-72.6l120.7-0.2c0,0,0,0,0,0C224.5,402.5,235.5,413.5,235.5,427z"/>
<path class="st1" d="M82.9,499.9c-8.4,0-16.3,3.3-22.3,9.3c-5.9,6-9.2,13.9-9.2,22.3c0,17.4,14.2,31.5,31.5,31.5c0,0,0.1,0,0.1,0
	c8.4,0,16.3-3.3,22.3-9.3c5.9-6,9.2-13.9,9.2-22.3C114.5,514,100.4,499.9,82.9,499.9z M94.7,543.1c-3.1,3.1-7.3,4.9-11.7,4.9l0,7.5
	V548c-9.1,0-16.5-7.4-16.5-16.5c0-9.1,7.4-16.5,16.5-16.6c9.1,0,16.5,7.4,16.5,16.5C99.5,535.8,97.8,540,94.7,543.1z"/>
<path class="st1" d="M243.2,499.6c-8.4,0-16.3,3.3-22.3,9.3c-5.9,6-9.2,13.9-9.2,22.3c0,17.4,14.2,31.5,31.5,31.5c0,0,0.1,0,0.1,0
	c8.4,0,16.3-3.3,22.3-9.3c5.9-6,9.2-13.9,9.2-22.3C274.8,513.7,260.6,499.6,243.2,499.6z M254.9,542.8c-3.1,3.1-7.3,4.9-11.7,4.9
	l0,7.5v-7.5c-9.1,0-16.5-7.4-16.5-16.5c0-9.1,7.4-16.5,16.5-16.6c9.1,0,16.5,7.4,16.5,16.5C259.8,535.5,258.1,539.7,254.9,542.8z"/>
<path class="st1" d="M-77.3,500.2c-17.4,0-31.5,14.2-31.5,31.6c0,17.4,14.2,31.5,31.5,31.5c0,0,0.1,0,0.1,0c8.4,0,16.3-3.3,22.3-9.3
	c5.9-6,9.2-13.9,9.2-22.3C-45.7,514.3-59.9,500.2-77.3,500.2z M-65.5,543.4c-3.1,3.1-7.3,4.9-11.7,4.9l0,7.5v-7.5
	c-9.1,0-16.5-7.4-16.5-16.5c0-9.1,7.4-16.5,16.5-16.6c9.1,0,16.5,7.4,16.5,16.5C-60.7,536.1-62.4,540.3-65.5,543.4z"/>
<path class="st2" d="M69.1,296.8l13.3-13.3l-45.2-38.7c-2-1.6-4.8-1.2-6.3,0.8l-10.5,16l35.5,48.6L69.1,296.8z"/>
<path class="st2" d="M109,310l35.3-48.8l-10.5-15.9c-1.5-2-4.4-2.4-6.3-0.8l-45,38.9l13.3,13.3L109,310z"/>
<circle class="st2" cx="83" cy="531.4" r="24"/>
<circle class="st2" cx="243.2" cy="531.1" r="24"/>
<circle class="st2" cx="-77.2" cy="531.7" r="24"/>
</svg>
