<?xml version="1.0" encoding="utf-8"?>
<!-- Generator: Adobe Illustrator 19.0.0, SVG Export Plug-In . SVG Version: 6.00 Build 0)  -->
<svg version="1.1" id="Layer_1" xmlns="http://www.w3.org/2000/svg" xmlns:xlink="http://www.w3.org/1999/xlink" x="0px" y="0px"
	 viewBox="-173 51.3 512 512" style="enable-background:new -173 51.3 512 512;" xml:space="preserve">
<style type="text/css">
	.st0{fill:#CAD401;}
	.st1{fill:#E2E2E2;}
</style>
<circle class="st0" cx="83" cy="307.3" r="48.1"/>
<path class="st1" d="M209.8,239.4c-0.4-0.8-0.9-1.4-1.5-2c-0.2-0.8-0.4-1.5-0.9-2.3c-2.1-3.6-6.7-4.8-10.3-2.7l-29.2,17
	c-2.7-2.4-5.9-4.1-9.5-5.1c-6.1-1.6-12.4-0.8-17.9,2.4l-25.8,15c-2.6-1.8-5.4-3.4-8.3-4.8l-0.1-29.8c0-10.4-6.8-19.2-16.1-22.3
	l0-26.1c18.6,1.1,36.8,6.1,53.1,14.8c3.7,1.9,8.2,0.6,10.2-3.1c2-3.7,0.6-8.2-3.1-10.2c-20.6-11-43.9-16.8-67.5-16.8
	c-0.1,0-0.2,0-0.3,0c0,0,0,0,0,0c-38.4,0.1-74.5,15.1-101.6,42.3c-27.1,27.2-42,63.3-41.9,101.7c0.1,30.6,9.6,59.9,27.7,84.5
	c1.5,2,3.8,3.1,6.1,3.1c1.5,0,3.1-0.5,4.4-1.5c3.4-2.5,4.1-7.2,1.6-10.5c-1.2-1.6-2.3-3.3-3.4-5l22.6-13.1c2.7,2.4,5.9,4.1,9.5,5.1
	c2,0.5,4.1,0.8,6.1,0.8c4.1,0,8.1-1.1,11.8-3.2l25.8-15c2.6,1.8,5.4,3.4,8.3,4.8l0.1,29.8c0,10.4,6.8,19.2,16.1,22.3l0,26.1
	c-27.7-1.6-54.2-12-75.5-29.9c-3.2-2.7-7.9-2.3-10.6,0.9c-2.7,3.2-2.3,7.9,0.9,10.6c25.8,21.7,58.7,33.7,92.5,33.7
	c0.1,0,0.2,0,0.3,0c0,0,0,0,0,0c38.4-0.1,74.5-15.1,101.6-42.3s42-63.3,41.9-101.7C226.7,283.4,220.9,260,209.8,239.4z M211.8,307
	c0,20.4-4.6,40.1-13.5,57.8l-22.6-13c0.7-3.5,0.6-7.2-0.4-10.7c-1.6-6.1-5.5-11.1-11-14.3L138.4,312c0.1-1.6,0.2-3.2,0.2-4.8
	c0-1.6-0.1-3.2-0.2-4.8l25.8-14.9c5.4-3.2,9.3-8.2,10.9-14.3c1-3.6,1-7.2,0.3-10.7l22.6-13.1C207,267.1,211.7,287,211.8,307z
	 M83.1,347.9l-0.1,7.5L83.1,347.9c-22.4,0-40.6-18.2-40.7-40.5c0-10.8,4.2-21,11.8-28.7c7.6-7.7,17.8-11.9,28.8-11.9
	c22.3,0,40.5,18.2,40.6,40.5C123.6,329.6,105.5,347.8,83.1,347.9z M6.1,263.1L6.1,263.1L6.1,263.1c1.1-2,3-3.4,5.2-4
	c2.2-0.6,4.5-0.3,6.5,0.8l21.9,12.6c-3.5,4.4-6.4,9.4-8.5,14.8L9.3,274.7c-2-1.1-3.4-3-4-5.2C4.7,267.4,5,265.1,6.1,263.1z
	 M134.9,327.3l21.9,12.6c2,1.1,3.4,3,4,5.2c0.6,2.2,0.3,4.5-0.8,6.5l0,0l0,0c-1.1,2-3,3.4-5.2,4s-4.5,0.3-6.5-0.8L126.4,342
	C129.9,337.6,132.8,332.6,134.9,327.3z M148.1,259.7c2-1.1,4.3-1.4,6.5-0.9c2.2,0.6,4,2,5.2,4c0,0,0,0,0,0c0,0,0,0,0,0
	c1.1,2,1.4,4.3,0.9,6.5s-2,4-4,5.2l-21.8,12.7c-2.1-5.4-5-10.3-8.6-14.7L148.1,259.7z M91.4,252.3c-2.7-0.4-5.6-0.6-8.4-0.6
	c0,0-0.1,0-0.1,0c-2.9,0-5.7,0.2-8.5,0.7l0-25.2c0-2.3,0.9-4.4,2.5-6s3.7-2.5,6-2.5c0,0,0,0,0,0c2.3,0,4.4,0.9,6,2.5
	c1.6,1.6,2.5,3.7,2.5,6L91.4,252.3z M-8.2,216.4c22.5-22.6,51.9-35.8,83.5-37.6l0,26.1c-3.4,1.1-6.5,3.1-9.1,5.7
	c-4.4,4.5-6.9,10.4-6.9,16.7l0.1,29.8c-2.9,1.4-5.7,3-8.3,4.8l-25.8-14.9c-5.5-3.1-11.8-4-17.9-2.3c-3.6,1-6.8,2.7-9.5,5.1l-22.6-13
	C-20,229.5-14.4,222.7-8.2,216.4z M-45.7,307.5c0-20.4,4.6-40.1,13.5-57.8l22.6,13c-0.7,3.5-0.6,7.2,0.4,10.7
	c1.6,6.1,5.5,11.1,11,14.3l25.8,14.8c-0.1,1.6-0.2,3.2-0.2,4.8s0.1,3.2,0.2,4.8L1.9,327.1c-9,5.2-13.2,15.4-11.3,25.1L-32,365.3
	C-41,347.5-45.7,327.9-45.7,307.5z M17.9,354.9c-2,1.1-4.3,1.4-6.5,0.9c-2.2-0.6-4-2-5.2-4c0,0,0,0,0,0c0,0,0,0,0,0
	c-2.4-4.1-1-9.3,3.1-11.6l21.8-12.7c2.1,5.4,5,10.3,8.6,14.7L17.9,354.9z M74.6,362.3c2.7,0.4,5.6,0.6,8.4,0.6c0,0,0.1,0,0.1,0
	c2.9,0,5.7-0.2,8.5-0.7l0,25.2c0,2.3-0.9,4.4-2.5,6c-1.6,1.6-3.7,2.5-6,2.5c0,0,0,0,0,0c-2.3,0-4.4-0.9-6-2.5
	c-1.6-1.6-2.5-3.7-2.5-6L74.6,362.3z M174.2,398.1c-22.5,22.6-51.9,35.8-83.5,37.6l0-26.1c3.4-1.1,6.5-3.1,9.1-5.7
	c4.4-4.5,6.9-10.4,6.9-16.7l-0.1-29.8c2.9-1.4,5.7-3,8.3-4.8l25.8,14.9c3.6,2.1,7.6,3.1,11.7,3.1c2.1,0,4.1-0.3,6.2-0.8
	c3.6-1,6.8-2.7,9.5-5.1l22.6,13C186,385.1,180.5,391.9,174.2,398.1z"/>
<path class="st1" d="M165.8,208.7c5.6,4.7,10.8,9.9,15.5,15.5c1.5,1.8,3.6,2.7,5.7,2.7c1.7,0,3.4-0.6,4.9-1.8
	c3.2-2.7,3.6-7.4,0.9-10.6c-5.3-6.2-11.1-12-17.3-17.3c-3.2-2.7-7.9-2.3-10.6,0.9C162.2,201.2,162.6,206,165.8,208.7z"/>
<path class="st1" d="M296.3,402.7l-41.7-24c-2.9-1.7-6.2-2.7-9.5-3c9.1-21.5,13.8-44.8,13.8-68.8c0-24-4.9-47.3-14-68.7
	c3.3-0.3,6.6-1.4,9.5-3.1l41.6-24.1c11.2-6.5,15.1-20.9,8.6-32.2c-4.2-7.2-12-11.7-20.4-11.7c-4.1,0-8.2,1.1-11.8,3.2l-41.6,24.1
	c-3,1.8-5.5,4.1-7.4,6.8c-4.9-6.4-10.2-12.6-16.1-18.4c-28.2-28.1-64.2-45.5-103.1-50.1c1.4-3,2.1-6.3,2.1-9.8l-0.1-48.1
	c0-13-10.6-23.5-23.6-23.5c-13,0-23.5,10.6-23.5,23.6l0.1,48.1c0,3.5,0.8,6.8,2.2,9.8c-38.9,4.8-74.8,22.2-102.8,50.4
	c-5.8,5.9-11.2,12.1-16.1,18.6c-1.9-2.7-4.4-5-7.4-6.7l-41.7-24c-3.6-2.1-7.6-3.1-11.7-3.1c-8.4,0-16.2,4.5-20.4,11.8
	c-3.1,5.5-4,11.8-2.3,17.9s5.5,11.1,11,14.3l41.7,24c2.9,1.7,6.2,2.7,9.5,3c-9.1,21.5-13.8,44.8-13.8,68.8c0,24,4.9,47.3,14,68.7
	c-3.3,0.3-6.6,1.4-9.5,3.1l-41.6,24.1c-5.4,3.2-9.3,8.2-10.9,14.3c-1.6,6.1-0.8,12.4,2.4,17.9c4.2,7.2,12,11.7,20.4,11.7
	c4.1,0,8.2-1.1,11.8-3.2l41.6-24.1c3-1.8,5.5-4.1,7.4-6.8c4.9,6.4,10.2,12.6,16.1,18.4C-13,459.9,23,477.3,61.9,481.9
	c-1.4,3-2.1,6.3-2.1,9.8l0.1,48.1c0,13,10.6,23.5,23.5,23.5c0,0,0,0,0,0c13,0,23.5-10.6,23.5-23.6l-0.1-48.1c0-3.5-0.8-6.8-2.2-9.8
	c38.9-4.8,74.8-22.2,102.8-50.4c5.8-5.9,11.2-12.1,16.1-18.6c1.9,2.7,4.4,5,7.4,6.8l41.7,24c3.6,2.1,7.6,3.1,11.7,3.1l0,0
	c8.4,0,16.2-4.5,20.4-11.8C311.4,423.6,307.5,409.2,296.3,402.7z M238.2,207.4l41.6-24.1c1.3-0.8,2.8-1.2,4.3-1.2
	c3,0,5.9,1.6,7.4,4.2c2.4,4.1,1,9.3-3.1,11.6l-41.6,24.1c-1.3,0.8-2.7,1.1-4.3,1.1h0c-2.7,0-5.2-1.3-6.8-3.4c-0.3-0.6-0.7-1.1-1-1.7
	C233,214.3,234.4,209.6,238.2,207.4z M74.1,122.9l-0.1-48.1c0-2.3,0.9-4.4,2.5-6c1.6-1.6,3.7-2.5,6-2.5c4.7,0,8.5,3.8,8.5,8.5
	l0.1,48.1c0,2.3-0.9,4.4-2.5,6c-1.6,1.6-3.7,2.5-6,2.5c0,0,0,0,0,0l0,0C78,131.4,74.2,127.6,74.1,122.9z M-76.8,223.9
	c-1.5,0-2.9-0.4-4.2-1.1l-41.7-24c-2-1.1-3.4-3-4-5.2s-0.3-4.5,0.8-6.5c1.5-2.6,4.4-4.3,7.4-4.3c1.5,0,2.9,0.4,4.2,1.1l41.7,24
	c3.8,2.2,5.3,6.8,3.6,10.8c-0.3,0.6-0.7,1.1-1,1.7C-71.6,222.6-74.1,223.9-76.8,223.9z M-72.2,407.1l-41.6,24.1
	c-1.3,0.8-2.8,1.1-4.3,1.1c-3,0-5.9-1.6-7.4-4.2c-1.1-2-1.4-4.3-0.9-6.5c0.6-2.2,2-4,4-5.2l41.6-24.1c1.3-0.8,2.8-1.2,4.3-1.2
	c2.7,0,5.2,1.3,6.8,3.4c0.3,0.6,0.7,1.1,1,1.7C-67,400.3-68.4,404.9-72.2,407.1z M83.5,548.3l0,7.5L83.5,548.3
	c-4.7,0-8.5-3.8-8.5-8.5l-0.1-48.1c0-2.3,0.9-4.4,2.5-6c1.6-1.6,3.7-2.5,6-2.5c4.7,0,8.5,3.8,8.5,8.5l0.1,48.1
	C92,544.4,88.2,548.2,83.5,548.3z M196.9,420.8c-30.3,30.4-70.7,47.2-113.6,47.3H83c-88.5,0-160.6-72-160.8-160.5
	c-0.1-28.1,7.1-55.2,20.5-79c0.3-0.5,0.6-0.9,0.9-1.4c0.2-0.4,0.5-0.9,0.7-1.3c6.8-11.5,15.1-22.3,24.8-32
	c30.3-30.4,70.7-47.2,113.6-47.3H83c88.5,0,160.6,72,160.8,160.5c0.1,28.1-7.1,55.2-20.5,79c-0.3,0.5-0.6,0.9-0.9,1.4
	c-0.2,0.4-0.5,0.9-0.7,1.3C214.9,400.3,206.6,411,196.9,420.8z M291.9,427.4c-1.5,2.6-4.4,4.3-7.4,4.3c-1.5,0-2.9-0.4-4.2-1.1
	l-41.7-24c-2-1.1-3.4-3-4-5.2c-0.5-1.9-0.4-3.8,0.4-5.6c0.3-0.6,0.7-1.1,1-1.7c1.6-2.1,4.1-3.4,6.8-3.4c1.5,0,2.9,0.4,4.2,1.1
	l41.7,24C292.9,418.1,294.3,423.3,291.9,427.4z"/>
</svg>
