<?xml version="1.0" encoding="utf-8"?>
<!-- Generator: Adobe Illustrator 19.0.0, SVG Export Plug-In . SVG Version: 6.00 Build 0)  -->
<svg version="1.1" id="Layer_1" xmlns="http://www.w3.org/2000/svg" xmlns:xlink="http://www.w3.org/1999/xlink" x="0px" y="0px"
	 viewBox="-173 51.3 512 512" style="enable-background:new -173 51.3 512 512;" xml:space="preserve">
<style type="text/css">
	.st0{fill:#CAD401;}
	.st1{fill:#E4EAF6;}
	.st2{fill:#E2E2E2;}
	.st3{fill:none;}
	.st4{fill:#FFFFFF;}
</style>
<path class="st0" d="M-114.1,542.6l24-24.1l-81.8-70.1c-3.5-2.9-8.8-2.2-11.5,1.4l-19,28.9l64.2,88L-114.1,542.6z"/>
<path id="SVGCleanerId_0" class="st1" d="M-42,566.5l64-88.2L2.9,449.5c-2.7-3.6-8-4.3-11.5-1.4l-81.5,70.4l24.1,24L-42,566.5z"/>
<g>
	<path id="SVGCleanerId_0_1_" class="st0" d="M-42,566.5l64-88.2L2.9,449.5c-2.7-3.6-8-4.3-11.5-1.4l-81.5,70.4l24.1,24L-42,566.5z"
		/>
</g>
<polyline class="st2" points="-75.1,564.5 -105.1,563.5 -114,606.7 -65.9,606.6 -75.1,564.5 "/>
<path class="st2" d="M-114.1,550.7c0,8.8,7.2,16,16.1,16h16c8.8,0,16-7.2,16-16.1v-8l-24.1-24l-24,24.1V550.7z"/>
<path class="st2" d="M149.8,565.3c0-17.1-5.5-34.5-15.3-48.9c-10.8-15.7-25.7-26.6-43.3-31.5c-0.2,0-0.3-0.1-0.5-0.1l-64.1-13.3
	l-7.8-11.8l-9.5-14.4c-0.1-0.1-0.2-0.2-0.3-0.4c-2.9-3.9-7.6-6.2-12.4-6.2c-3.6,0-7.1,1.3-9.8,3.5l-0.1,0.1l-27.2,23.5L-90,508.5
	l-42.8-36.7l-34.2-29.1l-0.1-0.1c-2.4-2-5.4-3.2-8.5-3.4c-0.4,0-0.9-0.1-1.3-0.1c-0.6,0-1.2,0-1.8,0.1c-0.7,0.1-1.5,0.2-2.2,0.4
	c-2.2,0.6-4.2,1.6-6,3.1c-0.2,0.1-0.3,0.3-0.5,0.4c-0.3,0.3-0.6,0.6-0.9,0.9c-0.4,0.4-0.8,0.9-1.1,1.3c0,0.1-0.1,0.1-0.1,0.2
	s-0.1,0.1-0.1,0.2l-17.3,26.3l-64.1,13.5c-0.2,0-0.3,0.1-0.5,0.1c-17.6,5-32.5,15.9-43.2,31.6c-9.8,14.4-15.2,31.8-15.1,48.9V586
	c0,15.7,14.2,28.5,31.5,28.5c0,0,0,0,0.1,0l184.2-0.3l0,0l0,0l48-0.1l0,0l0,0l184.2-0.3c8.2,0,16-2.9,21.9-8.1
	c6.2-5.4,9.6-12.7,9.6-20.5L149.8,565.3z M-98.1,574.2C-98,574.2-98,574.2-98.1,574.2H-82c0.6,0,1.2,0,1.8-0.1l5.1,25.1l-29.7,0.1
	l5-25.1C-99.3,574.1-98.7,574.2-98.1,574.2z M-73.5,550.6c0,4.7-3.8,8.5-8.5,8.5h-16c-2.2,0-4.4-0.9-6-2.5c-1.6-1.6-2.5-3.7-2.5-6
	v-4.9l16.5-16.6l16.6,16.5L-73.5,550.6z M-42.9,555l-17.8-17.8l0,0l-0.2-0.2L-79,519l51.7-44.7l23.6-20.4c0.1-0.1,0.4-0.1,0.6,0l0,0
	l8,12.1l8,12.1L-15,516.6L-42.9,555z M-176.8,454.2c0.1,0,0.1,0,0.1,0.1l75.5,64.8l-36.1,36.2l-56-76.7l16-24.3
	C-177.2,454.2-176.9,454.1-176.8,454.2z M-298.2,599.6L-298.2,599.6c-9.1,0-16.5-6.1-16.5-13.5v-19.9c0-26.1,16.1-57.1,47.2-66
	l62.1-13.1l61.4,84.1c1.3,1.8,3.3,2.9,5.5,3.1c0.2,0,0.4,0,0.6,0c1.7,0,3.4-0.6,4.8-1.7c0.2-0.2,0.4-0.3,0.6-0.5l12.5-12.9
	c1.2,3,3,5.7,5.3,8.1c0.2,0.2,0.5,0.5,0.7,0.7l-6.2,31.3L-298.2,599.6z M130.3,594.5c-3.2,2.8-7.4,4.3-12,4.3l-178.1,0.3l-6.3-31.2
	c2.6-2.4,4.7-5.4,6-8.8l12.8,12.8c1.4,1.4,3.3,2.2,5.3,2.2c0.2,0,0.4,0,0.6,0c2.2-0.2,4.2-1.3,5.5-3.1l61.1-84.3l62.1,12.9
	c31.1,8.8,47.4,39.7,47.4,65.8v19.9C134.8,588.6,133.2,591.9,130.3,594.5z"/>
<path class="st3" d="M-20.9,404.6c19.2-21.6,31.5-51.1,34.7-83.1c0.1-0.8,0.2-1.7,0.2-2.5c0.2-3,0.3-6,0.3-8.9v-17V278L0.4,245.3
	l-0.8-1.8c-1.8-0.9-4.8-2.2-8.7-3.9c-12.7-5.2-36-13.2-68.1-17.7c-12.6-1.8-26.5-3-41.7-3.4c-0.3,0-0.6,0-0.9,0
	c-1.5,0-3.1,0-4.7-0.1c-0.7,0-1.4,0-2.2,0c-2.2,0-4.4,0-6.6,0c-3.1,0.1-6.3,0.1-9.4,0.3c-2.6,0.1-5.2,0.2-7.8,0.4
	c-0.9,0.1-1.9,0.1-2.8,0.2c-1.7,0.1-3.4,0.2-5,0.4c-1.1,0.1-2.2,0.2-3.2,0.3c-1.5,0.1-3.1,0.3-4.6,0.4c-1.1,0.1-2.3,0.2-3.4,0.4
	c-1.4,0.2-2.8,0.3-4.2,0.5c-0.1,0.2-0.2,0.5-0.3,0.7c0,0.1-0.1,0.1-0.1,0.2c-0.2,0.4-0.4,0.8-0.6,1.3l0,0c-0.8,1.9-1.8,4.2-2.9,6.8
	l0,0c-0.3,0.6-0.5,1.3-0.8,2c0,0.1,0,0.1-0.1,0.2c-0.3,0.6-0.5,1.3-0.8,2c0,0.1-0.1,0.2-0.1,0.3c-0.3,0.6-0.5,1.3-0.8,2
	c0,0.1-0.1,0.2-0.1,0.4c-0.2,0.6-0.5,1.3-0.8,2c-0.1,0.1-0.1,0.3-0.2,0.4c-0.2,0.7-0.5,1.3-0.8,2c-0.1,0.2-0.1,0.3-0.2,0.5
	c-0.2,0.7-0.5,1.4-0.8,2.1c-0.1,0.2-0.1,0.3-0.2,0.5c-0.3,0.7-0.5,1.4-0.8,2.1c-0.1,0.2-0.1,0.3-0.2,0.5c-0.3,0.7-0.5,1.5-0.8,2.2
	c-0.1,0.1-0.1,0.3-0.2,0.4c-0.3,0.8-0.5,1.6-0.8,2.4c0,0.1-0.1,0.3-0.1,0.4c-0.3,0.8-0.6,1.7-0.8,2.5c0,0.1-0.1,0.2-0.1,0.3
	c-1.5,4.7-3,9.7-4.2,14.7c0,0.1,0,0.2-0.1,0.3c-0.2,0.9-0.4,1.8-0.6,2.7c-0.1,0.2-0.1,0.5-0.2,0.7c-0.2,0.8-0.3,1.5-0.5,2.3
	c-0.1,0.3-0.1,0.6-0.2,0.9c-0.1,0.7-0.3,1.4-0.4,2.1c-0.1,0.3-0.1,0.7-0.2,1c-0.1,0.6-0.2,1.3-0.4,1.9c-0.1,0.4-0.1,0.7-0.2,1.1
	c-0.1,0.6-0.2,1.2-0.3,1.8c-0.1,0.4-0.1,0.8-0.2,1.2c-0.1,0.6-0.2,1.2-0.3,1.8c-0.1,0.4-0.1,0.8-0.2,1.2c-0.1,0.5-0.1,0.9-0.2,1.4
	c-0.1,1.5-0.3,3-0.4,4.4c-0.2,2.5-0.3,5-0.3,7.5v8.1c0.7,30,9.2,57.6,24.8,80.6c3.8,5.6,7.9,10.7,12.2,15.4h136.1
	C-21.9,405.7-21.4,405.2-20.9,404.6z"/>
<path class="st3" d="M15.1,134.3c-18.8,0-38.9-4-60.2-8.2c-21-4.2-42.6-8.5-62.5-8.5c-20.6,0-36.9,4.8-49.7,14.6
	c-1.3,1-2.9,1.5-4.5,1.5h-4.4c-31.2,0.1-45.2,28.5-45.1,56.7c0,17.2,4.3,43.8,8.5,65.2c4.7-15.9,10.9-30.4,16.1-41.8
	c0.1-0.3,0.3-0.6,0.4-0.8c0.4-0.9,0.7-1.5,0.8-1.7c0-0.1,0.1-0.1,0.1-0.1c0.1-0.3,0.3-0.6,0.5-0.8c1.2-1.8,3.1-3.1,5.3-3.4
	c12.2-1.6,24.5-2.6,36.5-3.1c3.3-0.1,6.6-0.2,9.8-0.3c0.1,0,0.2,0,0.3,0c0,0,0,0,0.1,0s0.3,0,0.4,0c1.7,0,3.4,0,5.1,0
	c0.2,0,0.4,0,0.7,0c0.1,0,0.3,0,0.4,0c2.2,0,4.3,0,6.4,0.1c0.1,0,0.3,0,0.4,0C-46.7,205-1.1,226.3,7.8,230.9
	c0.8,0.4,1.4,0.7,1.5,0.8c0,0,0.1,0,0.1,0.1c0.3,0.2,0.6,0.4,0.9,0.6c0.1,0,0.1,0.1,0.2,0.1c0.3,0.2,0.6,0.5,0.8,0.8l0,0
	c0,0,0,0.1,0.1,0.1c0.1,0.1,0.2,0.3,0.4,0.4l0,0l0,0c0.1,0.1,0.1,0.2,0.2,0.3c0,0.1,0.1,0.1,0.1,0.1s0,0.1,0.1,0.1
	c0.2,0.3,0.3,0.6,0.5,0.9c0,0,0,0.1,0.1,0.1l7.9,18.8c13.9-56.4,8.9-102.2,3.9-120C21.3,134.2,18.3,134.3,15.1,134.3z"/>
<path class="st4" d="M-128.9,429.2c0.2,0.1,0.3,0.2,0.5,0.3c1.1,0.6,2.2,1.1,3.3,1.6c0.3,0.1,0.5,0.2,0.8,0.4c1,0.5,2.1,0.9,3.1,1.3
	c0.3,0.1,0.6,0.2,0.9,0.4c1.1,0.4,2.2,0.9,3.4,1.3c0.2,0.1,0.4,0.1,0.6,0.2c1.4,0.5,2.7,0.9,4.1,1.3c2,0.6,3.9,1,5.9,1.4
	c0.4,0.1,0.8,0.2,1.1,0.2c0.8,0.1,1.6,0.3,2.3,0.4c0.5,0.1,1,0.2,1.5,0.2c0.8,0.1,1.6,0.2,2.3,0.3c0.5,0.1,0.9,0.1,1.4,0.2
	c0.9,0.1,1.7,0.1,2.6,0.2c0.4,0,0.8,0.1,1.1,0.1c1.2,0.1,2.5,0.1,3.7,0.1h0.1l0,0c0.6,0,1.3,0,2,0c0.3,0,0.5,0,0.8,0
	c0.6,0,1.2,0,1.8-0.1c0.1,0,0.1,0,0.2,0c22.6-1.5,45.2-13.1,63.1-32.5h-136.1C-149.5,415.9-139.5,423.7-128.9,429.2z"/>
<path class="st2" d="M36.2,122.8c-1.4-3.1-4.6-4.9-7.9-4.4c-4,0.6-8.4,0.9-13.1,0.9c-17.3,0-36.7-3.9-57.2-7.9
	c-21.7-4.3-44.1-8.8-65.4-8.8c-23,0-41.6,5.3-56.8,16.1h-2c-35.5,0.1-60.2,29.6-60.1,71.7c0.1,32.8,14,94.2,16,102.5v8.3l0,0v0.8
	c-0.1,2.8,0,5.6,0,8.4v0.1c0,3.6,0.2,7.3,0.4,10.9l0,0c0.1,1.6,0.3,3.3,0.5,5l0,0c0.3,3.1,0.7,6.1,1.3,9.2l0,0
	c0.2,1.2,0.4,2.3,0.6,3.5l0,0c0,0,0,0,0,0.1v0.1c0,0,0,0,0,0.1s0,0.1,0,0.2c0,0,0,0,0,0.1l0,0l0,0c3,15.9,8.4,30.9,15.6,44.6
	c0.2,0.4,0.4,0.7,0.6,1.1c0.4,0.7,0.7,1.3,1.1,2c0.6,1.2,1.3,2.3,1.9,3.4c0,0,0,0.1,0.1,0.1c0.8,1.3,1.5,2.6,2.3,3.8
	c0.1,0.1,0.2,0.3,0.3,0.4c0.9,1.4,1.8,2.8,2.7,4.1c6.2,9.2,13.3,17.5,21,24.6v-17.5h3.7c-4.3-4.7-8.4-9.9-12.2-15.4
	c-15.6-23-24-50.7-24.8-80.6v-8.1c0.1-2.5,0.2-5,0.3-7.5c0.1-1.5,0.2-3,0.4-4.4c0.1-0.5,0.1-0.9,0.2-1.4c0.1-0.4,0.1-0.8,0.2-1.2
	c0.1-0.6,0.2-1.2,0.3-1.8c0.1-0.4,0.1-0.8,0.2-1.2c0.1-0.6,0.2-1.2,0.3-1.8c0.1-0.4,0.1-0.7,0.2-1.1c0.1-0.6,0.2-1.3,0.4-1.9
	c0.1-0.3,0.1-0.7,0.2-1c0.1-0.7,0.3-1.4,0.4-2.1c0.1-0.3,0.1-0.6,0.2-0.9c0.2-0.8,0.3-1.5,0.5-2.3c0.1-0.2,0.1-0.5,0.2-0.7
	c0.2-0.9,0.4-1.8,0.6-2.7c0-0.1,0-0.2,0.1-0.3c1.3-5,2.7-10,4.2-14.7c0-0.1,0.1-0.2,0.1-0.3c0.3-0.9,0.5-1.7,0.8-2.5
	c0-0.1,0.1-0.3,0.1-0.4c0.3-0.8,0.5-1.6,0.8-2.4c0.1-0.1,0.1-0.3,0.2-0.4c0.3-0.7,0.5-1.5,0.8-2.2c0.1-0.2,0.1-0.3,0.2-0.5
	c0.3-0.7,0.5-1.4,0.8-2.1c0.1-0.2,0.1-0.3,0.2-0.5c0.3-0.7,0.5-1.4,0.8-2.1c0.1-0.2,0.1-0.3,0.2-0.5c0.3-0.7,0.5-1.3,0.8-2
	c0.1-0.1,0.1-0.3,0.2-0.4c0.3-0.7,0.5-1.3,0.8-2c0-0.1,0.1-0.2,0.1-0.4c0.3-0.7,0.5-1.3,0.8-2c0-0.1,0.1-0.2,0.1-0.3
	c0.3-0.7,0.5-1.3,0.8-2c0-0.1,0-0.1,0.1-0.2c0.3-0.7,0.5-1.3,0.8-2l0,0c1.1-2.6,2.1-4.9,2.9-6.8l0,0c0.2-0.5,0.4-0.9,0.6-1.3
	c0-0.1,0.1-0.1,0.1-0.2c0.1-0.3,0.2-0.5,0.3-0.7c1.4-0.2,2.8-0.3,4.2-0.5c1.1-0.1,2.3-0.3,3.4-0.4c1.5-0.2,3.1-0.3,4.6-0.4
	c1.1-0.1,2.2-0.2,3.2-0.3c1.7-0.1,3.4-0.2,5-0.4c0.9-0.1,1.9-0.1,2.8-0.2c2.6-0.2,5.2-0.3,7.8-0.4c3.1-0.1,6.3-0.2,9.4-0.3
	c2.2,0,4.4-0.1,6.6,0c0.7,0,1.4,0,2.2,0c1.6,0,3.1,0,4.7,0.1c0.3,0,0.6,0,0.9,0c15.1,0.3,29.1,1.6,41.7,3.4
	c32.1,4.5,55.4,12.5,68.1,17.7c4,1.6,6.9,3,8.7,3.9l0.8,1.8L15,277.8v15.1v17c0,2.9-0.1,5.9-0.3,8.9c-0.1,0.8-0.1,1.7-0.2,2.5
	c-3.2,32-15.5,61.5-34.7,83.1c-0.5,0.5-1,1.1-1.5,1.6h4.4v10c0,0-6.5,10-18.9,21.6c8.1-5.1,15.7-11.3,22.9-18.6
	c0.1-0.1,0.2-0.2,0.3-0.3c0.6-0.6,1.1-1.2,1.7-1.7c0.3-0.3,0.6-0.6,0.8-0.9s0.5-0.5,0.7-0.8c0.1-0.2,0.3-0.3,0.4-0.5
	c0.1-0.1,0.3-0.3,0.4-0.4c0.2-0.2,0.3-0.4,0.5-0.6c0.4-0.4,0.7-0.9,1.1-1.3c0.2-0.3,0.4-0.5,0.7-0.8c0.5-0.6,1-1.3,1.6-1.9
	c0,0,0-0.1,0.1-0.1c18.3-22.4,30.2-50.8,33.9-80.7c0.2-1.6,0.4-3.1,0.5-4.6l0,0c0.1-0.6,0.1-1.2,0.2-1.8l0,0
	c0.1-1.2,0.2-2.4,0.2-3.5c0.1-1.3,0.2-2.7,0.3-4c0.4-6.8,0.4-13.5,0.3-18.6c0-0.8,0-2.5,0.1-4.3c0.2-8.3,0.2-12.7-0.2-15.5
	C52.6,202.7,43.8,140.1,36.2,122.8z M20.3,253.9l-7.9-18.8c0,0,0-0.1-0.1-0.1c-0.1-0.3-0.3-0.6-0.5-0.9c0,0,0-0.1-0.1-0.1
	c0-0.1-0.1-0.1-0.1-0.1c-0.1-0.1-0.1-0.2-0.2-0.3l0,0l0,0c-0.1-0.1-0.2-0.3-0.4-0.4c0,0,0-0.1-0.1-0.1l0,0c-0.3-0.3-0.5-0.5-0.8-0.8
	c-0.1,0-0.1-0.1-0.2-0.1c-0.3-0.2-0.6-0.4-0.9-0.6c0,0,0,0-0.1-0.1c-0.2-0.1-0.7-0.4-1.5-0.8c-8.9-4.5-54.5-25.8-127.3-27.2
	c-0.1,0-0.3,0-0.4,0c-2.1,0-4.3-0.1-6.4-0.1c-0.1,0-0.3,0-0.4,0c-0.2,0-0.4,0-0.7,0c-1.7,0-3.4,0-5.1,0c-0.1,0-0.3,0-0.4,0
	c0,0,0,0-0.1,0c-0.1,0-0.2,0-0.3,0c-3.3,0.1-6.6,0.1-9.8,0.3c-12,0.5-24.3,1.6-36.5,3.1c-2.2,0.3-4.1,1.5-5.3,3.4
	c-0.2,0.3-0.3,0.5-0.5,0.8c0,0,0,0-0.1,0.1c-0.1,0.2-0.4,0.8-0.8,1.7c-0.1,0.3-0.2,0.5-0.4,0.8c-5.2,11.4-11.4,25.9-16.1,41.8
	c-4.1-21.4-8.4-48-8.5-65.2c-0.1-28.2,13.9-56.6,45.1-56.7h4.4c1.6,0,3.2-0.5,4.5-1.5c12.9-9.8,29.1-14.6,49.7-14.6
	c19.9,0,41.5,4.3,62.5,8.5c21.3,4.2,41.3,8.2,60.2,8.2c3.1,0,6.2-0.1,9.1-0.3C29.3,151.7,34.2,197.5,20.3,253.9z"/>
<path class="st2" d="M-17.9,416.2v-10h-4.4c-17.8,19.4-40.5,31.1-63.1,32.5c-0.1,0-0.1,0-0.2,0c-0.6,0-1.2,0.1-1.8,0.1
	c-0.3,0-0.5,0-0.8,0c-0.7,0-1.3,0-2,0l0,0h-0.1c-1.2,0-2.5,0-3.7-0.1c-0.4,0-0.8-0.1-1.1-0.1c-0.9-0.1-1.7-0.1-2.6-0.2
	c-0.5,0-0.9-0.1-1.4-0.2c-0.8-0.1-1.6-0.2-2.3-0.3c-0.5-0.1-1-0.2-1.5-0.2c-0.8-0.1-1.6-0.2-2.3-0.4c-0.4-0.1-0.8-0.2-1.1-0.2
	c-1.9-0.4-3.9-0.9-5.9-1.4c-1.4-0.4-2.7-0.8-4.1-1.3c-0.2-0.1-0.4-0.1-0.6-0.2c-1.1-0.4-2.3-0.8-3.4-1.3c-0.3-0.1-0.6-0.2-0.9-0.4
	c-1-0.4-2.1-0.9-3.1-1.3c-0.3-0.1-0.5-0.2-0.8-0.4c-1.1-0.5-2.2-1-3.3-1.6c-0.2-0.1-0.3-0.2-0.5-0.3c-10.6-5.5-20.7-13.3-29.6-23
	h-3.7v17.6c7.9,7.3,16.5,13.5,25.5,18.3c0,0,0.1,0,0.1,0.1c2.5,1.3,5.1,2.6,7.6,3.7c0.1,0,0.2,0.1,0.2,0.1c1.2,0.5,2.4,1,3.6,1.5
	c0.2,0.1,0.4,0.2,0.6,0.2c1.2,0.4,2.4,0.9,3.6,1.3c0.2,0.1,0.4,0.1,0.6,0.2c1.2,0.4,2.5,0.8,3.8,1.2l0,0l0,0
	c1.2,0.3,2.3,0.6,3.5,0.9c0.1,0,0.1,0,0.2,0c1.1,0.3,2.2,0.5,3.3,0.7l0,0l0,0l0,0c0.3,0.1,0.6,0.1,0.9,0.2c0.2,0,0.3,0.1,0.5,0.1
	l0,0h0.1l0,0c0.1,0,0.2,0,0.3,0c0.8,0.1,1.6,0.3,2.4,0.4c0.6,0.1,1.2,0.2,1.8,0.3c0.9,0.1,1.8,0.2,2.8,0.3c0.5,0.1,1.1,0.1,1.6,0.2
	c1.1,0.1,2.1,0.2,3.2,0.2c0.4,0,0.8,0.1,1.2,0.1c1.5,0.1,2.9,0.1,4.4,0.1l0,0l0,0h0.2l0,0c0.6,0,1.1,0,1.7,0h0.1c0.2,0,0.4,0,0.6,0
	c0.3,0,0.6,0,0.9,0c0.7,0,1.4-0.1,2.1-0.1c0.1,0,0.1,0,0.2,0c16.6-1,32.9-6.5,47.8-15.9C-24.4,426.3-17.9,416.2-17.9,416.2z"/>
</svg>
