<?xml version="1.0" encoding="utf-8"?>
<!-- Generator: Adobe Illustrator 19.0.0, SVG Export Plug-In . SVG Version: 6.00 Build 0)  -->
<svg version="1.1" id="Layer_1" xmlns="http://www.w3.org/2000/svg" xmlns:xlink="http://www.w3.org/1999/xlink" x="0px" y="0px"
	 viewBox="-173 51.3 512 512" style="enable-background:new -173 51.3 512 512;" xml:space="preserve">
<style type="text/css">
	.st0{fill:#CAD401;}
	.st1{fill:#E2E2E2;}
</style>
<polygon class="st0" points="47.6,165.7 12.2,325 83,325 65.3,475.4 171.5,280.7 91.8,280.7 136.1,165.7 "/>
<path class="st1" d="M264,126.3c-48.4-48.4-112.6-75-181-75c-40.5,0-79.3,9.2-115.3,27.4c-27.1,13.7-51.9,32.4-72.6,54.8l4.4-26.5
	c0.8-4.5-2.3-8.8-6.8-9.5c-4.5-0.7-8.8,2.3-9.5,6.8l-8.8,53.1c-0.4,2.6,0.4,5.3,2.3,7.2c1.6,1.6,3.7,2.4,5.9,2.4
	c0.5,0,0.9,0,1.4-0.1l53.1-8.8c4.5-0.8,7.6-5,6.8-9.5c-0.8-4.5-5-7.6-9.5-6.8l-28.5,4.8c19.7-21.7,43.5-39.8,69.5-53
	C8.8,76.5,45.1,67.9,83,67.9c63.9,0,124.1,24.9,169.3,70.1c45.2,45.2,70.1,105.3,70.1,169.3c0,38.7-9.4,77.1-27.3,111.1
	c-2.1,4.1-0.6,9.1,3.5,11.2c1.2,0.6,2.5,1,3.8,1c3,0,5.9-1.6,7.3-4.4c19.1-36.4,29.2-77.5,29.2-118.9
	C339,238.9,312.4,174.6,264,126.3z"/>
<path class="st1" d="M282.2,447.6l-53.1,8.8c-4.5,0.8-7.6,5-6.8,9.5c0.8,4.5,5,7.6,9.5,6.8l28.5-4.8C215,518.2,151.2,546.7,83,546.7
	c-63.9,0-124.1-24.9-169.3-70.1c-45.2-45.2-70.1-105.3-70.1-169.3c0-38.7,9.4-77.1,27.3-111.1c2.1-4.1,0.6-9.1-3.5-11.2
	c-4.1-2.1-9.1-0.6-11.2,3.5c-19.1,36.4-29.2,77.5-29.2,118.9c0,68.4,26.6,132.7,75,181s112.6,75,181,75
	c72.1,0,139.5-29.7,187.9-82.1l-4.4,26.4c-0.8,4.5,2.3,8.8,6.8,9.5c0.5,0.1,0.9,0.1,1.4,0.1c4,0,7.5-2.9,8.2-6.9l8.8-53.1
	c0.4-2.6-0.4-5.3-2.3-7.2C287.5,448.1,284.8,447.2,282.2,447.6z"/>
<path class="st1" d="M142.9,161c-1.5-2.3-4.1-3.6-6.8-3.6H47.6c-3.9,0-7.3,2.7-8.1,6.5L5.3,317.8c-0.8,3.8,0.1,7.7,2.5,10.7
	s6,4.8,9.9,4.8h55.9L57.1,474.4c-0.5,3.9,1.9,7.7,5.7,8.9c0.8,0.3,1.7,0.4,2.5,0.4c3,0,5.8-1.6,7.3-4.3l102.6-188.1
	c2.2-4,2.1-8.7-0.2-12.6c-2.3-3.9-6.4-6.2-10.9-6.2h-60.1l39.9-103.7C144.8,166.2,144.5,163.3,142.9,161z M84.1,277.8
	c-1,2.6-0.6,5.4,0.9,7.7c1.5,2.3,4.1,3.6,6.8,3.6h65.6L78.6,433.8l12.7-107.8c0.3-2.4-0.5-4.7-2-6.5s-3.8-2.8-6.2-2.8H22.6L54.3,174
	H124L84.1,277.8z"/>
</svg>
