<?xml version="1.0" encoding="utf-8"?>
<!-- Generator: Adobe Illustrator 19.0.0, SVG Export Plug-In . SVG Version: 6.00 Build 0)  -->
<svg version="1.1" id="Capa_1" xmlns="http://www.w3.org/2000/svg" xmlns:xlink="http://www.w3.org/1999/xlink" x="0px" y="0px"
	 viewBox="-256 134.2 345.1 345.1" style="enable-background:new -256 134.2 345.1 345.1;" xml:space="preserve">
<style type="text/css">
	.st0{fill:#E2E2E2;}
	.st1{fill:#CAD401;}
</style>
<g>
	<path class="st0" d="M86.9,233.1l-96.7-96.7c-1.4-1.4-3.3-2.2-5.3-2.2h-136.7c-2,0-3.9,0.8-5.3,2.2l-96.7,96.7
		c-1.4,1.4-2.2,3.3-2.2,5.3v136.7c0,4.1,3.4,7.5,7.5,7.5s7.5-3.4,7.5-7.5V241.5l92.3-92.3h130.5l92.3,92.3V372l-92.3,92.3h-130.5
		l-46.1-46.1c-2.9-2.9-7.7-2.9-10.6,0c-2.9,2.9-2.9,7.7,0,10.6l48.3,48.3c1.4,1.4,3.3,2.2,5.3,2.2h136.7c2,0,3.9-0.8,5.3-2.2
		l96.7-96.7c1.4-1.4,2.2-3.3,2.2-5.3V238.4C89.1,236.4,88.3,234.5,86.9,233.1z"/>
	<path class="st1" d="M-25.6,321.3c4.1,0,7.5-3.4,7.5-7.5v-76.6c0-13.6-11.1-24.7-24.7-24.7h-0.3c-3.6,0-7,0.8-10,2.1
		c-1.9-11.7-12.1-20.7-24.4-20.7h-0.3c-12.1,0-22.5,8.6-25.6,20.9c-3.2-1.5-6.7-2.3-10.4-2.3h-0.3c-13.6,0-24.7,11.1-24.7,24.7v0.9
		c-3-1.3-6.3-2-9.7-2h-0.3c-13.6,0-24.7,11.1-24.7,24.7v60v23.6v21.5c0,29.7,24.2,53.9,53.9,53.9h28.6c22.6,0,45.1-7.5,63.2-21.1
		l51.6-39.3c5.5-3.4,9.3-8.7,10.9-14.9c1.6-6.4,0.6-13-2.8-18.7l-0.2-0.3c-7-11.7-22.2-15.5-33.9-8.5c-0.2,0.1-0.3,0.2-0.5,0.3
		L-27,334c-9.8-2.4-35.4-5.9-56.2,16.1c-2.8,3-2.7,7.8,0.3,10.6c1.4,1.4,3.3,2.1,5.2,2.1c2,0,4-0.8,5.4-2.3
		c18.7-19.7,43-11.5,44.2-11.1c2.6,0.9,5.3,0.4,7.3-1.2l26.4-18.5c4.6-2.6,10.4-1.1,13.1,3.5l0.2,0.3c1.3,2.2,1.7,4.8,1.1,7.4
		c-0.6,2.5-2.2,4.6-4.4,6c-0.2,0.1-0.5,0.3-0.7,0.5l-51.9,39.5c-15.5,11.7-34.7,18.1-54.1,18.1h-28.6c-21.4,0-38.9-17.4-38.9-38.9
		v-21.5v-23.6v-60c0-5.4,4.4-9.7,9.7-9.7h0.3c5.4,0,9.7,4.4,9.7,9.7v60v23.6c0,4.1,3.4,7.5,7.5,7.5c4.1,0,7.5-3.4,7.5-7.5v-23.6v-60
		v-23.6c0-5.4,4.4-9.7,9.7-9.7h0.3c5.4,0,9.7,4.4,9.7,9.7v65v18.6c0,4.1,3.4,7.5,7.5,7.5s7.5-3.4,7.5-7.5v-18.6v-65v-17.9
		c1.2-6,6-10.4,11.3-10.4h0.3c5.4,0,9.7,4.4,9.7,9.7v18.6v65v18.6c0,4.1,3.4,7.5,7.5,7.5s7.5-3.4,7.5-7.5v-18.6v-65
		c0-5.4,4.4-9.7,9.7-9.7h0.3c5.4,0,9.7,4.4,9.7,9.7v76.6C-33.1,317.9-29.8,321.3-25.6,321.3z"/>
</g>
</svg>
